M48
INCH
T1C0.0118
T2C0.0315
T3C0.0394
T4C0.0469
T5C0.0472
%
G90
G05
T1
X5.57Y-3.55
T2
X5.1116Y-3.6
X5.19Y-3.34
X5.19Y-3.4384
X5.21Y-3.6
X5.25Y-3.7958
X5.25Y-3.8942
X5.2958Y-3.345
X5.37Y-3.745
X5.37Y-3.875
X5.3942Y-3.345
X5.67Y-3.745
X5.67Y-3.875
X5.83Y-3.45
X5.83Y-3.57
X6.13Y-3.45
X6.13Y-3.57
T3
X6.12Y-3.1
X6.12Y-3.2
T4
X5.01Y-3.8
X5.11Y-3.8
X5.19Y-3.15
X5.29Y-3.15
X5.39Y-3.15
X5.49Y-3.15
X5.59Y-3.15
X5.749Y-3.1504
X5.849Y-3.1504
X6.4292Y-3.77
X6.4292Y-3.87
T5
X6.4092Y-3.1733
X6.4092Y-3.3111
X6.4092Y-3.4489
X6.4092Y-3.5867
M30
