%TF.GenerationSoftware,KiCad,Pcbnew,9.0.1*%
%TF.CreationDate,2026-03-24T11:04:08+01:00*%
%TF.ProjectId,duet_dac,64756574-5f64-4616-932e-6b696361645f,rev?*%
%TF.SameCoordinates,Original*%
%TF.FileFunction,Copper,L1,Top*%
%TF.FilePolarity,Positive*%
%FSLAX46Y46*%
G04 Gerber Fmt 4.6, Leading zero omitted, Abs format (unit mm)*
G04 Created by KiCad (PCBNEW 9.0.1) date 2026-03-24 11:04:08*
%MOMM*%
%LPD*%
G01*
G04 APERTURE LIST*
G04 Aperture macros list*
%AMRoundRect*
0 Rectangle with rounded corners*
0 $1 Rounding radius*
0 $2 $3 $4 $5 $6 $7 $8 $9 X,Y pos of 4 corners*
0 Add a 4 corners polygon primitive as box body*
4,1,4,$2,$3,$4,$5,$6,$7,$8,$9,$2,$3,0*
0 Add four circle primitives for the rounded corners*
1,1,$1+$1,$2,$3*
1,1,$1+$1,$4,$5*
1,1,$1+$1,$6,$7*
1,1,$1+$1,$8,$9*
0 Add four rect primitives between the rounded corners*
20,1,$1+$1,$2,$3,$4,$5,0*
20,1,$1+$1,$4,$5,$6,$7,0*
20,1,$1+$1,$6,$7,$8,$9,0*
20,1,$1+$1,$8,$9,$2,$3,0*%
G04 Aperture macros list end*
%TA.AperFunction,ComponentPad*%
%ADD10C,1.600000*%
%TD*%
%TA.AperFunction,ComponentPad*%
%ADD11RoundRect,0.250001X-0.949999X0.949999X-0.949999X-0.949999X0.949999X-0.949999X0.949999X0.949999X0*%
%TD*%
%TA.AperFunction,ComponentPad*%
%ADD12C,2.400000*%
%TD*%
%TA.AperFunction,SMDPad,CuDef*%
%ADD13RoundRect,0.150000X-0.825000X-0.150000X0.825000X-0.150000X0.825000X0.150000X-0.825000X0.150000X0*%
%TD*%
%TA.AperFunction,ComponentPad*%
%ADD14O,1.600000X1.600000*%
%TD*%
%TA.AperFunction,ComponentPad*%
%ADD15R,1.700000X1.700000*%
%TD*%
%TA.AperFunction,ComponentPad*%
%ADD16C,1.700000*%
%TD*%
%TA.AperFunction,SMDPad,CuDef*%
%ADD17R,1.000000X2.500000*%
%TD*%
%TA.AperFunction,SMDPad,CuDef*%
%ADD18RoundRect,0.100000X0.100000X-0.625000X0.100000X0.625000X-0.100000X0.625000X-0.100000X-0.625000X0*%
%TD*%
%TA.AperFunction,ComponentPad*%
%ADD19RoundRect,0.250000X0.620000X0.845000X-0.620000X0.845000X-0.620000X-0.845000X0.620000X-0.845000X0*%
%TD*%
%TA.AperFunction,ComponentPad*%
%ADD20O,1.740000X2.190000*%
%TD*%
%TA.AperFunction,ComponentPad*%
%ADD21RoundRect,0.250000X-0.620000X-0.845000X0.620000X-0.845000X0.620000X0.845000X-0.620000X0.845000X0*%
%TD*%
%TA.AperFunction,ComponentPad*%
%ADD22RoundRect,0.250000X-0.845000X0.620000X-0.845000X-0.620000X0.845000X-0.620000X0.845000X0.620000X0*%
%TD*%
%TA.AperFunction,ComponentPad*%
%ADD23O,2.190000X1.740000*%
%TD*%
%TA.AperFunction,ViaPad*%
%ADD24C,0.600000*%
%TD*%
%TA.AperFunction,Conductor*%
%ADD25C,0.200000*%
%TD*%
G04 APERTURE END LIST*
D10*
%TO.P,C4,1*%
%TO.N,+12V*%
X133350000Y-96413000D03*
%TO.P,C4,2*%
%TO.N,GND*%
X133350000Y-98913000D03*
%TD*%
D11*
%TO.P,J4,1,Pin_1*%
%TO.N,Net-(J4-Pin_1)*%
X162792500Y-80602000D03*
D12*
%TO.P,J4,2,Pin_2*%
%TO.N,Net-(J4-Pin_2)*%
X162792500Y-84102000D03*
%TO.P,J4,3,Pin_3*%
%TO.N,Net-(J3-Pin_1)*%
X162792500Y-87602000D03*
%TO.P,J4,4,Pin_4*%
%TO.N,GND*%
X162792500Y-91102000D03*
%TD*%
D13*
%TO.P,U1,1*%
%TO.N,/CTRL_5V*%
X139892000Y-84328000D03*
%TO.P,U1,2,-*%
X139892000Y-85598000D03*
%TO.P,U1,3,+*%
%TO.N,Net-(U1A-+)*%
X139892000Y-86868000D03*
%TO.P,U1,4,V+*%
%TO.N,+12V*%
X139892000Y-88138000D03*
%TO.P,U1,5,+*%
%TO.N,Net-(U1B-+)*%
X139892000Y-89408000D03*
%TO.P,U1,6,-*%
%TO.N,/CTRL_3V3*%
X139892000Y-90678000D03*
%TO.P,U1,7*%
X139892000Y-91948000D03*
%TO.P,U1,8*%
%TO.N,/CTRL_10V*%
X144842000Y-91948000D03*
%TO.P,U1,9,-*%
%TO.N,Net-(U1C--)*%
X144842000Y-90678000D03*
%TO.P,U1,10,+*%
%TO.N,/CTRL_5V*%
X144842000Y-89408000D03*
%TO.P,U1,11,V-*%
%TO.N,GND*%
X144842000Y-88138000D03*
%TO.P,U1,12,+*%
%TO.N,unconnected-(U1D-+-Pad12)*%
X144842000Y-86868000D03*
%TO.P,U1,13,-*%
%TO.N,unconnected-(U1D---Pad13)*%
X144842000Y-85598000D03*
%TO.P,U1,14*%
%TO.N,unconnected-(U1-Pad14)*%
X144842000Y-84328000D03*
%TD*%
D10*
%TO.P,R2,1*%
%TO.N,Net-(U1B-+)*%
X136398000Y-95123000D03*
D14*
%TO.P,R2,2*%
%TO.N,GND*%
X144018000Y-95123000D03*
%TD*%
D15*
%TO.P,JP1,1,A*%
%TO.N,Net-(J12-Pin_2)*%
X155448000Y-81280000D03*
D16*
%TO.P,JP1,2,B*%
%TO.N,Net-(J4-Pin_1)*%
X155448000Y-78740000D03*
%TD*%
D17*
%TO.P,SW1,1,1*%
%TO.N,/CTRL_5V*%
X147892000Y-93921750D03*
%TO.P,SW1,2,2*%
%TO.N,/CTRL_3V3*%
X149892000Y-93921750D03*
%TO.P,SW1,3,3*%
%TO.N,Net-(J4-Pin_2)*%
X153892000Y-93921750D03*
%TO.P,SW1,4,4*%
%TO.N,/CTRL_10V*%
X155892000Y-93921750D03*
%TD*%
D10*
%TO.P,R3,1*%
%TO.N,Net-(U1C--)*%
X148082000Y-87630000D03*
D14*
%TO.P,R3,2*%
%TO.N,GND*%
X155702000Y-87630000D03*
%TD*%
D10*
%TO.P,C1,1*%
%TO.N,+5V*%
X131826000Y-84836000D03*
%TO.P,C1,2*%
%TO.N,GND*%
X131826000Y-87336000D03*
%TD*%
D18*
%TO.P,U2,1,VCC*%
%TO.N,+5V*%
X134265000Y-91939000D03*
%TO.P,U2,2,VOUTA*%
%TO.N,Net-(U1A-+)*%
X134915000Y-91939000D03*
%TO.P,U2,3,VOUTB*%
%TO.N,unconnected-(U2-VOUTB-Pad3)*%
X135565000Y-91939000D03*
%TO.P,U2,4,IDLSEL*%
%TO.N,GND*%
X136215000Y-91939000D03*
%TO.P,U2,5,IOVCC*%
%TO.N,+5V*%
X136865000Y-91939000D03*
%TO.P,U2,6,GND*%
%TO.N,GND*%
X137515000Y-91939000D03*
%TO.P,U2,7,~{PD}*%
%TO.N,+5V*%
X137515000Y-87639000D03*
%TO.P,U2,8,INB*%
%TO.N,GND*%
X136865000Y-87639000D03*
%TO.P,U2,9,INA*%
%TO.N,Net-(J1-Pin_2)*%
X136215000Y-87639000D03*
%TO.P,U2,10,REF*%
%TO.N,+5V*%
X135565000Y-87639000D03*
%TO.P,U2,11,REFSEL*%
X134915000Y-87639000D03*
%TO.P,U2,12,GND*%
%TO.N,GND*%
X134265000Y-87639000D03*
%TD*%
D19*
%TO.P,J2,1,Pin_1*%
%TO.N,+12V*%
X129794000Y-96520000D03*
D20*
%TO.P,J2,2,Pin_2*%
%TO.N,GND*%
X127254000Y-96520000D03*
%TD*%
D10*
%TO.P,C3,1*%
%TO.N,+5V*%
X134513000Y-84963000D03*
%TO.P,C3,2*%
%TO.N,GND*%
X137013000Y-84963000D03*
%TD*%
D21*
%TO.P,J12,1,Pin_1*%
%TO.N,GND*%
X146025000Y-80020000D03*
D20*
%TO.P,J12,2,Pin_2*%
%TO.N,Net-(J12-Pin_2)*%
X148565000Y-80020000D03*
%TD*%
D10*
%TO.P,C2,1*%
%TO.N,+5V*%
X132334000Y-91440000D03*
%TO.P,C2,2*%
%TO.N,GND*%
X129834000Y-91440000D03*
%TD*%
%TO.P,R4,1*%
%TO.N,/CTRL_10V*%
X148082000Y-90678000D03*
D14*
%TO.P,R4,2*%
%TO.N,Net-(U1C--)*%
X155702000Y-90678000D03*
%TD*%
D10*
%TO.P,R1,1*%
%TO.N,/CTRL_5V*%
X144018000Y-98425000D03*
D14*
%TO.P,R1,2*%
%TO.N,Net-(U1B-+)*%
X136398000Y-98425000D03*
%TD*%
D21*
%TO.P,J1,1,Pin_1*%
%TO.N,+5V*%
X131826000Y-80010000D03*
D20*
%TO.P,J1,2,Pin_2*%
%TO.N,Net-(J1-Pin_2)*%
X134366000Y-80010000D03*
%TO.P,J1,3,Pin_3*%
%TO.N,GND*%
X136906000Y-80010000D03*
%TO.P,J1,4,Pin_4*%
%TO.N,unconnected-(J1-Pin_4-Pad4)*%
X139446000Y-80010000D03*
%TO.P,J1,5,Pin_5*%
%TO.N,unconnected-(J1-Pin_5-Pad5)*%
X141986000Y-80010000D03*
%TD*%
D22*
%TO.P,J3,1,Pin_1*%
%TO.N,Net-(J3-Pin_1)*%
X163302000Y-95758000D03*
D23*
%TO.P,J3,2,Pin_2*%
%TO.N,GND*%
X163302000Y-98298000D03*
%TD*%
D24*
%TO.N,+12V*%
X141478000Y-90170000D03*
%TD*%
D25*
%TO.N,GND*%
X136215000Y-90785000D02*
X136500000Y-90500000D01*
X137515000Y-90815000D02*
X137515000Y-91939000D01*
X136215000Y-91939000D02*
X136215000Y-90785000D01*
X137200000Y-90500000D02*
X137515000Y-90815000D01*
X136500000Y-90500000D02*
X137200000Y-90500000D01*
X136865000Y-87639000D02*
X136865000Y-85111000D01*
X136865000Y-85111000D02*
X137013000Y-84963000D01*
%TO.N,+5V*%
X137033000Y-88900000D02*
X137515000Y-88418000D01*
X134513000Y-85090000D02*
X134915000Y-85492000D01*
X134915000Y-88433000D02*
X135382000Y-88900000D01*
X137515000Y-88418000D02*
X137515000Y-87639000D01*
X135565000Y-87639000D02*
X134915000Y-87639000D01*
X135382000Y-88900000D02*
X137033000Y-88900000D01*
X134915000Y-85492000D02*
X134915000Y-87639000D01*
X133766000Y-91440000D02*
X134265000Y-91939000D01*
X136865000Y-92624000D02*
X136865000Y-91939000D01*
X132334000Y-91440000D02*
X133858000Y-92964000D01*
X132334000Y-91440000D02*
X133766000Y-91440000D01*
X133858000Y-92964000D02*
X136525000Y-92964000D01*
X134915000Y-87639000D02*
X134915000Y-88433000D01*
X136525000Y-92964000D02*
X136865000Y-92624000D01*
%TO.N,Net-(J1-Pin_2)*%
X135763000Y-85725000D02*
X136215000Y-86177000D01*
X134366000Y-82042000D02*
X135763000Y-83439000D01*
X136215000Y-86177000D02*
X136215000Y-87639000D01*
X134366000Y-80010000D02*
X134366000Y-82042000D01*
X135763000Y-83439000D02*
X135763000Y-85725000D01*
%TO.N,+12V*%
X141478000Y-88646000D02*
X140970000Y-88138000D01*
X140970000Y-88138000D02*
X139892000Y-88138000D01*
X141478000Y-90170000D02*
X141478000Y-88646000D01*
%TO.N,Net-(J3-Pin_1)*%
X162792500Y-87602000D02*
X163675000Y-87602000D01*
X163675000Y-87602000D02*
X164592000Y-88519000D01*
X164592000Y-88519000D02*
X164592000Y-94468000D01*
X164592000Y-94468000D02*
X163302000Y-95758000D01*
%TO.N,Net-(J4-Pin_2)*%
X154432000Y-96139000D02*
X156845000Y-96139000D01*
X153892000Y-93921750D02*
X153892000Y-95599000D01*
X153892000Y-95599000D02*
X154432000Y-96139000D01*
X156845000Y-96139000D02*
X158115000Y-94869000D01*
X158115000Y-94869000D02*
X158115000Y-85725000D01*
X159738000Y-84102000D02*
X162792500Y-84102000D01*
X158115000Y-85725000D02*
X159738000Y-84102000D01*
%TO.N,Net-(J12-Pin_2)*%
X148590000Y-80010000D02*
X151130000Y-80010000D01*
X151130000Y-80010000D02*
X152400000Y-81280000D01*
X152400000Y-81280000D02*
X155448000Y-81280000D01*
%TO.N,Net-(U1B-+)*%
X138430000Y-94234000D02*
X138430000Y-89789000D01*
X136398000Y-95123000D02*
X137541000Y-95123000D01*
X136398000Y-98425000D02*
X136398000Y-95123000D01*
X138430000Y-89789000D02*
X138811000Y-89408000D01*
X138811000Y-89408000D02*
X139257000Y-89408000D01*
X137541000Y-95123000D02*
X138430000Y-94234000D01*
%TO.N,/CTRL_5V*%
X143637000Y-89408000D02*
X144842000Y-89408000D01*
X142240000Y-97663000D02*
X143002000Y-98425000D01*
X146685000Y-96901000D02*
X145542000Y-96901000D01*
X142240000Y-88011000D02*
X143637000Y-89408000D01*
X142240000Y-88011000D02*
X142240000Y-97663000D01*
X142240000Y-85344000D02*
X141224000Y-84328000D01*
X139892000Y-84328000D02*
X139892000Y-85598000D01*
X142240000Y-88011000D02*
X142240000Y-85344000D01*
X147892000Y-93921750D02*
X147892000Y-95694000D01*
X141224000Y-84328000D02*
X139892000Y-84328000D01*
X147892000Y-95694000D02*
X146685000Y-96901000D01*
X145542000Y-96901000D02*
X144018000Y-98425000D01*
X143002000Y-98425000D02*
X144018000Y-98425000D01*
%TO.N,Net-(U1C--)*%
X145669000Y-90678000D02*
X146304000Y-90043000D01*
X144207000Y-90678000D02*
X145669000Y-90678000D01*
X147955000Y-87630000D02*
X150114000Y-87630000D01*
X146304000Y-89281000D02*
X147955000Y-87630000D01*
X153162000Y-90678000D02*
X155702000Y-90678000D01*
X150114000Y-87630000D02*
X153162000Y-90678000D01*
X146304000Y-90043000D02*
X146304000Y-89281000D01*
%TO.N,/CTRL_10V*%
X155321000Y-91948000D02*
X152908000Y-91948000D01*
X152908000Y-91948000D02*
X151638000Y-90678000D01*
X151638000Y-90678000D02*
X147275818Y-90678000D01*
X155892000Y-92519000D02*
X155321000Y-91948000D01*
X146005818Y-91948000D02*
X144842000Y-91948000D01*
X155892000Y-93921750D02*
X155892000Y-92519000D01*
X147275818Y-90678000D02*
X146005818Y-91948000D01*
%TO.N,/CTRL_3V3*%
X139257000Y-91948000D02*
X139257000Y-96585000D01*
X139257000Y-90678000D02*
X139257000Y-91948000D01*
X139257000Y-96585000D02*
X142367000Y-99695000D01*
X147066000Y-99695000D02*
X149892000Y-96869000D01*
X142367000Y-99695000D02*
X147066000Y-99695000D01*
X149892000Y-96869000D02*
X149892000Y-93921750D01*
%TO.N,Net-(U1A-+)*%
X135763000Y-89662000D02*
X137287000Y-89662000D01*
X138049000Y-87884000D02*
X139065000Y-86868000D01*
X139065000Y-86868000D02*
X139892000Y-86868000D01*
X138049000Y-88900000D02*
X138049000Y-87884000D01*
X134915000Y-90510000D02*
X135763000Y-89662000D01*
X137287000Y-89662000D02*
X138049000Y-88900000D01*
X134915000Y-91939000D02*
X134915000Y-90510000D01*
%TO.N,Net-(J4-Pin_1)*%
X159977000Y-80602000D02*
X162792500Y-80602000D01*
X158115000Y-78740000D02*
X159977000Y-80602000D01*
X155448000Y-78740000D02*
X158115000Y-78740000D01*
%TD*%
%TA.AperFunction,Conductor*%
%TO.N,GND*%
G36*
X167082539Y-76720185D02*
G01*
X167128294Y-76772989D01*
X167139500Y-76824500D01*
X167139500Y-101483500D01*
X167119815Y-101550539D01*
X167067011Y-101596294D01*
X167015500Y-101607500D01*
X124830500Y-101607500D01*
X124763461Y-101587815D01*
X124717706Y-101535011D01*
X124706500Y-101483500D01*
X124706500Y-98810682D01*
X132050000Y-98810682D01*
X132050000Y-99015317D01*
X132082009Y-99217417D01*
X132145244Y-99412031D01*
X132238141Y-99594350D01*
X132238147Y-99594359D01*
X132270523Y-99638921D01*
X132270524Y-99638922D01*
X132950000Y-98959446D01*
X132950000Y-98965661D01*
X132977259Y-99067394D01*
X133029920Y-99158606D01*
X133104394Y-99233080D01*
X133195606Y-99285741D01*
X133297339Y-99313000D01*
X133303553Y-99313000D01*
X132624076Y-99992474D01*
X132668650Y-100024859D01*
X132850968Y-100117755D01*
X133045582Y-100180990D01*
X133247683Y-100213000D01*
X133452317Y-100213000D01*
X133654417Y-100180990D01*
X133849031Y-100117755D01*
X134031349Y-100024859D01*
X134075921Y-99992474D01*
X133396447Y-99313000D01*
X133402661Y-99313000D01*
X133504394Y-99285741D01*
X133595606Y-99233080D01*
X133670080Y-99158606D01*
X133722741Y-99067394D01*
X133750000Y-98965661D01*
X133750000Y-98959448D01*
X134429474Y-99638922D01*
X134429474Y-99638921D01*
X134461859Y-99594349D01*
X134554755Y-99412031D01*
X134617990Y-99217417D01*
X134650000Y-99015317D01*
X134650000Y-98810682D01*
X134617990Y-98608582D01*
X134554755Y-98413968D01*
X134461859Y-98231650D01*
X134429474Y-98187077D01*
X134429474Y-98187076D01*
X133750000Y-98866551D01*
X133750000Y-98860339D01*
X133722741Y-98758606D01*
X133670080Y-98667394D01*
X133595606Y-98592920D01*
X133504394Y-98540259D01*
X133402661Y-98513000D01*
X133396446Y-98513000D01*
X134075922Y-97833524D01*
X134075921Y-97833523D01*
X134031359Y-97801147D01*
X134031350Y-97801141D01*
X133867488Y-97717649D01*
X133816692Y-97669674D01*
X133799897Y-97601853D01*
X133822434Y-97535718D01*
X133867489Y-97496679D01*
X133979197Y-97439761D01*
X133979196Y-97439761D01*
X133979199Y-97439760D01*
X134132073Y-97328690D01*
X134265690Y-97195073D01*
X134376760Y-97042199D01*
X134462547Y-96873832D01*
X134520940Y-96694118D01*
X134527786Y-96650892D01*
X134550500Y-96507486D01*
X134550500Y-96318513D01*
X134520940Y-96131881D01*
X134478516Y-96001316D01*
X134462547Y-95952168D01*
X134462545Y-95952165D01*
X134462545Y-95952163D01*
X134402979Y-95835259D01*
X134376760Y-95783801D01*
X134265690Y-95630927D01*
X134132073Y-95497310D01*
X133979199Y-95386240D01*
X133953214Y-95373000D01*
X133810836Y-95300454D01*
X133631118Y-95242059D01*
X133444486Y-95212500D01*
X133444481Y-95212500D01*
X133255519Y-95212500D01*
X133255514Y-95212500D01*
X133068881Y-95242059D01*
X132889163Y-95300454D01*
X132720800Y-95386240D01*
X132658382Y-95431590D01*
X132567927Y-95497310D01*
X132567925Y-95497312D01*
X132567924Y-95497312D01*
X132434312Y-95630924D01*
X132434312Y-95630925D01*
X132434310Y-95630927D01*
X132390515Y-95691205D01*
X132323240Y-95783800D01*
X132237454Y-95952163D01*
X132179059Y-96131881D01*
X132149500Y-96318513D01*
X132149500Y-96507486D01*
X132179059Y-96694118D01*
X132237454Y-96873836D01*
X132310571Y-97017334D01*
X132323240Y-97042199D01*
X132434310Y-97195073D01*
X132567927Y-97328690D01*
X132720801Y-97439760D01*
X132803712Y-97482005D01*
X132832511Y-97496679D01*
X132883307Y-97544654D01*
X132900102Y-97612475D01*
X132877565Y-97678609D01*
X132832511Y-97717649D01*
X132668644Y-97801143D01*
X132624077Y-97833523D01*
X132624077Y-97833524D01*
X133303554Y-98513000D01*
X133297339Y-98513000D01*
X133195606Y-98540259D01*
X133104394Y-98592920D01*
X133029920Y-98667394D01*
X132977259Y-98758606D01*
X132950000Y-98860339D01*
X132950000Y-98866553D01*
X132270524Y-98187077D01*
X132270523Y-98187077D01*
X132238143Y-98231644D01*
X132145244Y-98413968D01*
X132082009Y-98608582D01*
X132050000Y-98810682D01*
X124706500Y-98810682D01*
X124706500Y-96187179D01*
X125884000Y-96187179D01*
X125884000Y-96270000D01*
X126711291Y-96270000D01*
X126699548Y-96290339D01*
X126659000Y-96441667D01*
X126659000Y-96598333D01*
X126699548Y-96749661D01*
X126711291Y-96770000D01*
X125884000Y-96770000D01*
X125884000Y-96852820D01*
X125917734Y-97065809D01*
X125984372Y-97270901D01*
X126082271Y-97463036D01*
X126209025Y-97637496D01*
X126209025Y-97637497D01*
X126361502Y-97789974D01*
X126535963Y-97916728D01*
X126728098Y-98014627D01*
X126933190Y-98081266D01*
X127004000Y-98092481D01*
X127004000Y-97062709D01*
X127024339Y-97074452D01*
X127175667Y-97115000D01*
X127332333Y-97115000D01*
X127483661Y-97074452D01*
X127504000Y-97062709D01*
X127504000Y-98092480D01*
X127574809Y-98081266D01*
X127779901Y-98014627D01*
X127972036Y-97916728D01*
X128146496Y-97789974D01*
X128146497Y-97789974D01*
X128298974Y-97637497D01*
X128298979Y-97637491D01*
X128347926Y-97570122D01*
X128403255Y-97527456D01*
X128472869Y-97521477D01*
X128534664Y-97554082D01*
X128567320Y-97608410D01*
X128572255Y-97625396D01*
X128572256Y-97625398D01*
X128589240Y-97654116D01*
X128655917Y-97766862D01*
X128655923Y-97766870D01*
X128772129Y-97883076D01*
X128772133Y-97883079D01*
X128772135Y-97883081D01*
X128913602Y-97966744D01*
X128925890Y-97970314D01*
X129071426Y-98012597D01*
X129071429Y-98012597D01*
X129071431Y-98012598D01*
X129108306Y-98015500D01*
X129108314Y-98015500D01*
X130479686Y-98015500D01*
X130479694Y-98015500D01*
X130516569Y-98012598D01*
X130516571Y-98012597D01*
X130516573Y-98012597D01*
X130558191Y-98000505D01*
X130674398Y-97966744D01*
X130815865Y-97883081D01*
X130932081Y-97766865D01*
X131015744Y-97625398D01*
X131061598Y-97467569D01*
X131064500Y-97430694D01*
X131064500Y-95609306D01*
X131061598Y-95572431D01*
X131061545Y-95572250D01*
X131024018Y-95443080D01*
X131015744Y-95414602D01*
X130932081Y-95273135D01*
X130932079Y-95273133D01*
X130932076Y-95273129D01*
X130815870Y-95156923D01*
X130815862Y-95156917D01*
X130674396Y-95073255D01*
X130674393Y-95073254D01*
X130516573Y-95027402D01*
X130516567Y-95027401D01*
X130479701Y-95024500D01*
X130479694Y-95024500D01*
X129108306Y-95024500D01*
X129108298Y-95024500D01*
X129071432Y-95027401D01*
X129071426Y-95027402D01*
X128913606Y-95073254D01*
X128913603Y-95073255D01*
X128772137Y-95156917D01*
X128772129Y-95156923D01*
X128655923Y-95273129D01*
X128655917Y-95273137D01*
X128572255Y-95414603D01*
X128572252Y-95414609D01*
X128567319Y-95431590D01*
X128529711Y-95490475D01*
X128466238Y-95519679D01*
X128397052Y-95509932D01*
X128347926Y-95469878D01*
X128298974Y-95402503D01*
X128298974Y-95402502D01*
X128146497Y-95250025D01*
X127972036Y-95123271D01*
X127779899Y-95025372D01*
X127574805Y-94958733D01*
X127504000Y-94947518D01*
X127504000Y-95977290D01*
X127483661Y-95965548D01*
X127332333Y-95925000D01*
X127175667Y-95925000D01*
X127024339Y-95965548D01*
X127004000Y-95977290D01*
X127004000Y-94947518D01*
X127003999Y-94947518D01*
X126933194Y-94958733D01*
X126728100Y-95025372D01*
X126535963Y-95123271D01*
X126361503Y-95250025D01*
X126361502Y-95250025D01*
X126209025Y-95402502D01*
X126209025Y-95402503D01*
X126082271Y-95576963D01*
X125984372Y-95769098D01*
X125917734Y-95974190D01*
X125884000Y-96187179D01*
X124706500Y-96187179D01*
X124706500Y-91337682D01*
X128534000Y-91337682D01*
X128534000Y-91542317D01*
X128566009Y-91744417D01*
X128629244Y-91939031D01*
X128722141Y-92121350D01*
X128722147Y-92121359D01*
X128754523Y-92165921D01*
X128754524Y-92165922D01*
X129434000Y-91486446D01*
X129434000Y-91492661D01*
X129461259Y-91594394D01*
X129513920Y-91685606D01*
X129588394Y-91760080D01*
X129679606Y-91812741D01*
X129781339Y-91840000D01*
X129787553Y-91840000D01*
X129108076Y-92519474D01*
X129152650Y-92551859D01*
X129334968Y-92644755D01*
X129529582Y-92707990D01*
X129731683Y-92740000D01*
X129936317Y-92740000D01*
X130138417Y-92707990D01*
X130333031Y-92644755D01*
X130515349Y-92551859D01*
X130559921Y-92519474D01*
X129880447Y-91840000D01*
X129886661Y-91840000D01*
X129988394Y-91812741D01*
X130079606Y-91760080D01*
X130154080Y-91685606D01*
X130206741Y-91594394D01*
X130234000Y-91492661D01*
X130234000Y-91486447D01*
X130913474Y-92165921D01*
X130945861Y-92121347D01*
X130945861Y-92121346D01*
X131029350Y-91957489D01*
X131077324Y-91906693D01*
X131145145Y-91889897D01*
X131211280Y-91912434D01*
X131250320Y-91957488D01*
X131296689Y-92048491D01*
X131307240Y-92069199D01*
X131418310Y-92222073D01*
X131551927Y-92355690D01*
X131704801Y-92466760D01*
X131781094Y-92505633D01*
X131873163Y-92552545D01*
X131873165Y-92552545D01*
X131873168Y-92552547D01*
X131969497Y-92583846D01*
X132052881Y-92610940D01*
X132239514Y-92640500D01*
X132239519Y-92640500D01*
X132428486Y-92640500D01*
X132532168Y-92624077D01*
X132615118Y-92610940D01*
X132680221Y-92589785D01*
X132750061Y-92587789D01*
X132806221Y-92620035D01*
X133457500Y-93271314D01*
X133550686Y-93364500D01*
X133648980Y-93421250D01*
X133664814Y-93430392D01*
X133792107Y-93464500D01*
X133792108Y-93464500D01*
X133792109Y-93464500D01*
X136590890Y-93464500D01*
X136590892Y-93464500D01*
X136718186Y-93430392D01*
X136832314Y-93364500D01*
X137051214Y-93145599D01*
X137112532Y-93112117D01*
X137182224Y-93117101D01*
X137186344Y-93118722D01*
X137258370Y-93148556D01*
X137258372Y-93148557D01*
X137314998Y-93156011D01*
X137315000Y-93156010D01*
X137315000Y-92972897D01*
X137334685Y-92905858D01*
X137339726Y-92898596D01*
X137408796Y-92806331D01*
X137459091Y-92671483D01*
X137465500Y-92611873D01*
X137465499Y-91266128D01*
X137459983Y-91214819D01*
X137459091Y-91206516D01*
X137408797Y-91071671D01*
X137408796Y-91071669D01*
X137339733Y-90979413D01*
X137315316Y-90913949D01*
X137315000Y-90905102D01*
X137315000Y-90721987D01*
X137258368Y-90729444D01*
X137112410Y-90789900D01*
X137105371Y-90793965D01*
X137104706Y-90792814D01*
X137047401Y-90814961D01*
X137023848Y-90814680D01*
X137012873Y-90813500D01*
X137012868Y-90813500D01*
X136717130Y-90813500D01*
X136717108Y-90813502D01*
X136706146Y-90814680D01*
X136637387Y-90802270D01*
X136618106Y-90790199D01*
X136617587Y-90789900D01*
X136471631Y-90729444D01*
X136415000Y-90721987D01*
X136415000Y-90905102D01*
X136408825Y-90926130D01*
X136407344Y-90947997D01*
X136396601Y-90967759D01*
X136395315Y-90972141D01*
X136390547Y-90979038D01*
X136390470Y-90979141D01*
X136321204Y-91071669D01*
X136320655Y-91073139D01*
X136314547Y-91081364D01*
X136293266Y-91097419D01*
X136274420Y-91116264D01*
X136265807Y-91118136D01*
X136258771Y-91123446D01*
X136232187Y-91125448D01*
X136206146Y-91131111D01*
X136197889Y-91128030D01*
X136189099Y-91128693D01*
X136165654Y-91116005D01*
X136140683Y-91106690D01*
X136133833Y-91098785D01*
X136127650Y-91095439D01*
X136121916Y-91085031D01*
X136115553Y-91077689D01*
X136114111Y-91078769D01*
X136105495Y-91067259D01*
X136039732Y-90979412D01*
X136015316Y-90913949D01*
X136015000Y-90905102D01*
X136015000Y-90721987D01*
X135958368Y-90729444D01*
X135812410Y-90789900D01*
X135805371Y-90793965D01*
X135804706Y-90792814D01*
X135790364Y-90798357D01*
X135770131Y-90810909D01*
X135754614Y-90812173D01*
X135747401Y-90814961D01*
X135735120Y-90815374D01*
X135729463Y-90815283D01*
X135712873Y-90813500D01*
X135617718Y-90813500D01*
X135616696Y-90813484D01*
X135584237Y-90803387D01*
X135551636Y-90793815D01*
X135550962Y-90793037D01*
X135549979Y-90792732D01*
X135528109Y-90766663D01*
X135505881Y-90741011D01*
X135505734Y-90739993D01*
X135505073Y-90739205D01*
X135500770Y-90705471D01*
X135495937Y-90671853D01*
X135496364Y-90670917D01*
X135496234Y-90669897D01*
X135510841Y-90639217D01*
X135524962Y-90608297D01*
X135526191Y-90606976D01*
X135526270Y-90606812D01*
X135526446Y-90606702D01*
X135530980Y-90601833D01*
X135933995Y-90198819D01*
X135995318Y-90165334D01*
X136021676Y-90162500D01*
X137352890Y-90162500D01*
X137352892Y-90162500D01*
X137480186Y-90128392D01*
X137594314Y-90062500D01*
X137717819Y-89938995D01*
X137779142Y-89905510D01*
X137848834Y-89910494D01*
X137904767Y-89952366D01*
X137929184Y-90017830D01*
X137929500Y-90026676D01*
X137929500Y-90610145D01*
X137909815Y-90677184D01*
X137857011Y-90722939D01*
X137787853Y-90732883D01*
X137773407Y-90729920D01*
X137771630Y-90729444D01*
X137715000Y-90721987D01*
X137715000Y-93156010D01*
X137715001Y-93156011D01*
X137771627Y-93148557D01*
X137773401Y-93148082D01*
X137774957Y-93148118D01*
X137779690Y-93147496D01*
X137779787Y-93148233D01*
X137843251Y-93149741D01*
X137901115Y-93188901D01*
X137928622Y-93253128D01*
X137929500Y-93267855D01*
X137929500Y-93975323D01*
X137909815Y-94042362D01*
X137893181Y-94063004D01*
X137543253Y-94412931D01*
X137481930Y-94446416D01*
X137412238Y-94441432D01*
X137356305Y-94399560D01*
X137355254Y-94398135D01*
X137328192Y-94360888D01*
X137313690Y-94340927D01*
X137180073Y-94207310D01*
X137027199Y-94096240D01*
X136858836Y-94010454D01*
X136679118Y-93952059D01*
X136492486Y-93922500D01*
X136492481Y-93922500D01*
X136303519Y-93922500D01*
X136303514Y-93922500D01*
X136116881Y-93952059D01*
X135937163Y-94010454D01*
X135768800Y-94096240D01*
X135720384Y-94131417D01*
X135615927Y-94207310D01*
X135615925Y-94207312D01*
X135615924Y-94207312D01*
X135482312Y-94340924D01*
X135482312Y-94340925D01*
X135482310Y-94340927D01*
X135456155Y-94376926D01*
X135371240Y-94493800D01*
X135285454Y-94662163D01*
X135227059Y-94841881D01*
X135197500Y-95028513D01*
X135197500Y-95217486D01*
X135227059Y-95404118D01*
X135285454Y-95583836D01*
X135340162Y-95691205D01*
X135371240Y-95752199D01*
X135482310Y-95905073D01*
X135615927Y-96038690D01*
X135720383Y-96114582D01*
X135768802Y-96149761D01*
X135807196Y-96169323D01*
X135829794Y-96180837D01*
X135880590Y-96228810D01*
X135897500Y-96291322D01*
X135897500Y-97256676D01*
X135877815Y-97323715D01*
X135829796Y-97367160D01*
X135768803Y-97398238D01*
X135692364Y-97453775D01*
X135615927Y-97509310D01*
X135615925Y-97509312D01*
X135615924Y-97509312D01*
X135482312Y-97642924D01*
X135482312Y-97642925D01*
X135482310Y-97642927D01*
X135438664Y-97703000D01*
X135371240Y-97795800D01*
X135285454Y-97964163D01*
X135227059Y-98143881D01*
X135197500Y-98330513D01*
X135197500Y-98519486D01*
X135227059Y-98706118D01*
X135285454Y-98885836D01*
X135351795Y-99016036D01*
X135371240Y-99054199D01*
X135482310Y-99207073D01*
X135615927Y-99340690D01*
X135768801Y-99451760D01*
X135848347Y-99492290D01*
X135937163Y-99537545D01*
X135937165Y-99537545D01*
X135937168Y-99537547D01*
X136029744Y-99567627D01*
X136116881Y-99595940D01*
X136303514Y-99625500D01*
X136303519Y-99625500D01*
X136492486Y-99625500D01*
X136679118Y-99595940D01*
X136684015Y-99594349D01*
X136858832Y-99537547D01*
X137027199Y-99451760D01*
X137180073Y-99340690D01*
X137313690Y-99207073D01*
X137424760Y-99054199D01*
X137510547Y-98885832D01*
X137568940Y-98706118D01*
X137575716Y-98663338D01*
X137598500Y-98519486D01*
X137598500Y-98330513D01*
X137568940Y-98143881D01*
X137527226Y-98015500D01*
X137510547Y-97964168D01*
X137510545Y-97964165D01*
X137510545Y-97964163D01*
X137455528Y-97856187D01*
X137424760Y-97795801D01*
X137313690Y-97642927D01*
X137180073Y-97509310D01*
X137027199Y-97398240D01*
X137027198Y-97398239D01*
X137027196Y-97398238D01*
X136966204Y-97367160D01*
X136915408Y-97319185D01*
X136898500Y-97256676D01*
X136898500Y-96291322D01*
X136918185Y-96224283D01*
X136966205Y-96180837D01*
X137027199Y-96149760D01*
X137180073Y-96038690D01*
X137313690Y-95905073D01*
X137424760Y-95752199D01*
X137450619Y-95701446D01*
X137455838Y-95691205D01*
X137503813Y-95640409D01*
X137566323Y-95623500D01*
X137606890Y-95623500D01*
X137606892Y-95623500D01*
X137734186Y-95589392D01*
X137848314Y-95523500D01*
X138544819Y-94826995D01*
X138606142Y-94793510D01*
X138675834Y-94798494D01*
X138731767Y-94840366D01*
X138756184Y-94905830D01*
X138756500Y-94914676D01*
X138756500Y-96650891D01*
X138790608Y-96778187D01*
X138791577Y-96779865D01*
X138856500Y-96892314D01*
X138856501Y-96892315D01*
X138856502Y-96892316D01*
X141962159Y-99997972D01*
X141962169Y-99997983D01*
X141966499Y-100002313D01*
X141966500Y-100002314D01*
X142059686Y-100095500D01*
X142173814Y-100161392D01*
X142301107Y-100195500D01*
X142301108Y-100195500D01*
X142301109Y-100195500D01*
X147131890Y-100195500D01*
X147131892Y-100195500D01*
X147259186Y-100161392D01*
X147373314Y-100095500D01*
X149732993Y-97735821D01*
X156366499Y-97735821D01*
X156391497Y-97861488D01*
X156391499Y-97861494D01*
X156440533Y-97979874D01*
X156440538Y-97979883D01*
X156511723Y-98086418D01*
X156511726Y-98086422D01*
X156602327Y-98177023D01*
X156602331Y-98177026D01*
X156708866Y-98248211D01*
X156708872Y-98248214D01*
X156708873Y-98248215D01*
X156827256Y-98297251D01*
X156827260Y-98297251D01*
X156827261Y-98297252D01*
X156952928Y-98322250D01*
X156952931Y-98322250D01*
X157081071Y-98322250D01*
X157165615Y-98305432D01*
X157206744Y-98297251D01*
X157325127Y-98248215D01*
X157431669Y-98177026D01*
X157522276Y-98086419D01*
X157593465Y-97979877D01*
X157642501Y-97861494D01*
X157656728Y-97789974D01*
X157667500Y-97735821D01*
X157667500Y-97607678D01*
X157642502Y-97482011D01*
X157642501Y-97482010D01*
X157642501Y-97482006D01*
X157593465Y-97363623D01*
X157593464Y-97363622D01*
X157593461Y-97363616D01*
X157522276Y-97257081D01*
X157522273Y-97257077D01*
X157431672Y-97166476D01*
X157431668Y-97166473D01*
X157325133Y-97095288D01*
X157325124Y-97095283D01*
X157206744Y-97046249D01*
X157206738Y-97046247D01*
X157081071Y-97021250D01*
X157081069Y-97021250D01*
X156952931Y-97021250D01*
X156952929Y-97021250D01*
X156827261Y-97046247D01*
X156827255Y-97046249D01*
X156708875Y-97095283D01*
X156708866Y-97095288D01*
X156602331Y-97166473D01*
X156602327Y-97166476D01*
X156511726Y-97257077D01*
X156511723Y-97257081D01*
X156440538Y-97363616D01*
X156440533Y-97363625D01*
X156391499Y-97482005D01*
X156391497Y-97482011D01*
X156366500Y-97607678D01*
X156366500Y-97607679D01*
X156366500Y-97607681D01*
X156366500Y-97735819D01*
X156366500Y-97735821D01*
X156366499Y-97735821D01*
X149732993Y-97735821D01*
X150292500Y-97176314D01*
X150298181Y-97166474D01*
X150358392Y-97062186D01*
X150392500Y-96934892D01*
X150392500Y-95683068D01*
X150412185Y-95616029D01*
X150464989Y-95570274D01*
X150497102Y-95560595D01*
X150517304Y-95557396D01*
X150630342Y-95499800D01*
X150720050Y-95410092D01*
X150777646Y-95297054D01*
X150777646Y-95297052D01*
X150777647Y-95297051D01*
X150792499Y-95203274D01*
X150792500Y-95203269D01*
X150792499Y-92640232D01*
X150777646Y-92546446D01*
X150720050Y-92433408D01*
X150720046Y-92433404D01*
X150720045Y-92433402D01*
X150630347Y-92343704D01*
X150630344Y-92343702D01*
X150630342Y-92343700D01*
X150553517Y-92304555D01*
X150517301Y-92286102D01*
X150423524Y-92271250D01*
X149360482Y-92271250D01*
X149279519Y-92284073D01*
X149266696Y-92286104D01*
X149153658Y-92343700D01*
X149153657Y-92343701D01*
X149153652Y-92343704D01*
X149063954Y-92433402D01*
X149063949Y-92433409D01*
X149002483Y-92554041D01*
X148954508Y-92604836D01*
X148886687Y-92621631D01*
X148820553Y-92599093D01*
X148781514Y-92554040D01*
X148777646Y-92546448D01*
X148777646Y-92546446D01*
X148720050Y-92433408D01*
X148720048Y-92433406D01*
X148720045Y-92433402D01*
X148630347Y-92343704D01*
X148630344Y-92343702D01*
X148630342Y-92343700D01*
X148553517Y-92304555D01*
X148517301Y-92286102D01*
X148423524Y-92271250D01*
X147360482Y-92271250D01*
X147279519Y-92284073D01*
X147266696Y-92286104D01*
X147153658Y-92343700D01*
X147153657Y-92343701D01*
X147153652Y-92343704D01*
X147063954Y-92433402D01*
X147063952Y-92433406D01*
X147063950Y-92433408D01*
X147054382Y-92452186D01*
X147006352Y-92546448D01*
X146991500Y-92640225D01*
X146991500Y-95203267D01*
X146998016Y-95244405D01*
X147006354Y-95297054D01*
X147063950Y-95410092D01*
X147063952Y-95410094D01*
X147063954Y-95410097D01*
X147153652Y-95499795D01*
X147153655Y-95499797D01*
X147153658Y-95499800D01*
X147153660Y-95499801D01*
X147161550Y-95505533D01*
X147160208Y-95507379D01*
X147201250Y-95546131D01*
X147218054Y-95613950D01*
X147195525Y-95680088D01*
X147181848Y-95696336D01*
X146514005Y-96364181D01*
X146452682Y-96397666D01*
X146426324Y-96400500D01*
X145476107Y-96400500D01*
X145396047Y-96421951D01*
X145396047Y-96421952D01*
X145348814Y-96434608D01*
X145348813Y-96434608D01*
X145348811Y-96434609D01*
X145234686Y-96500500D01*
X145234683Y-96500502D01*
X144490221Y-97244963D01*
X144428898Y-97278448D01*
X144364222Y-97275213D01*
X144299120Y-97254060D01*
X144112486Y-97224500D01*
X144112481Y-97224500D01*
X143923519Y-97224500D01*
X143923514Y-97224500D01*
X143736881Y-97254059D01*
X143557163Y-97312454D01*
X143388800Y-97398240D01*
X143235928Y-97509309D01*
X143102706Y-97642531D01*
X143094759Y-97646870D01*
X143089335Y-97654116D01*
X143064577Y-97663350D01*
X143041383Y-97676015D01*
X143032353Y-97675369D01*
X143023871Y-97678533D01*
X142998050Y-97672916D01*
X142971691Y-97671031D01*
X142962637Y-97665212D01*
X142955598Y-97663681D01*
X142927344Y-97642530D01*
X142776819Y-97492005D01*
X142743334Y-97430682D01*
X142740500Y-97404324D01*
X142740500Y-95957997D01*
X142760185Y-95890958D01*
X142812989Y-95845203D01*
X142882147Y-95835259D01*
X142945703Y-95864284D01*
X142964818Y-95885112D01*
X143026412Y-95969889D01*
X143026417Y-95969895D01*
X143171104Y-96114582D01*
X143336650Y-96234859D01*
X143518968Y-96327754D01*
X143713578Y-96390988D01*
X143768000Y-96399607D01*
X143768000Y-95438686D01*
X143772394Y-95443080D01*
X143863606Y-95495741D01*
X143965339Y-95523000D01*
X144070661Y-95523000D01*
X144172394Y-95495741D01*
X144263606Y-95443080D01*
X144268000Y-95438686D01*
X144268000Y-96399606D01*
X144322421Y-96390988D01*
X144517031Y-96327754D01*
X144699349Y-96234859D01*
X144864894Y-96114582D01*
X144864895Y-96114582D01*
X145009582Y-95969895D01*
X145009582Y-95969894D01*
X145129859Y-95804349D01*
X145222755Y-95622029D01*
X145285990Y-95427413D01*
X145294609Y-95373000D01*
X144333686Y-95373000D01*
X144338080Y-95368606D01*
X144390741Y-95277394D01*
X144418000Y-95175661D01*
X144418000Y-95070339D01*
X144390741Y-94968606D01*
X144338080Y-94877394D01*
X144333686Y-94873000D01*
X145294609Y-94873000D01*
X145285990Y-94818586D01*
X145222755Y-94623970D01*
X145129859Y-94441650D01*
X145009582Y-94276105D01*
X145009582Y-94276104D01*
X144864895Y-94131417D01*
X144699349Y-94011140D01*
X144517029Y-93918244D01*
X144322413Y-93855009D01*
X144268000Y-93846390D01*
X144268000Y-94807314D01*
X144263606Y-94802920D01*
X144172394Y-94750259D01*
X144070661Y-94723000D01*
X143965339Y-94723000D01*
X143863606Y-94750259D01*
X143772394Y-94802920D01*
X143768000Y-94807314D01*
X143768000Y-93846390D01*
X143713586Y-93855009D01*
X143518970Y-93918244D01*
X143336650Y-94011140D01*
X143171105Y-94131417D01*
X143171104Y-94131417D01*
X143026417Y-94276104D01*
X143026417Y-94276105D01*
X142964818Y-94360888D01*
X142909488Y-94403553D01*
X142839874Y-94409532D01*
X142778079Y-94376926D01*
X142743722Y-94316087D01*
X142740500Y-94288002D01*
X142740500Y-89518676D01*
X142760185Y-89451637D01*
X142812989Y-89405882D01*
X142882147Y-89395938D01*
X142945703Y-89424963D01*
X142952181Y-89430995D01*
X143236500Y-89715314D01*
X143329686Y-89808500D01*
X143443814Y-89874392D01*
X143556176Y-89904499D01*
X143571872Y-89914066D01*
X143589587Y-89918988D01*
X143609027Y-89936713D01*
X143615835Y-89940863D01*
X143616596Y-89941708D01*
X143619888Y-89945396D01*
X143624078Y-89950922D01*
X143626370Y-89952660D01*
X143633308Y-89960434D01*
X143646839Y-89988952D01*
X143661959Y-90016641D01*
X143661699Y-90020269D01*
X143663260Y-90023558D01*
X143659225Y-90054860D01*
X143656975Y-90086333D01*
X143654716Y-90089847D01*
X143654329Y-90092855D01*
X143647782Y-90100637D01*
X143628478Y-90130676D01*
X143624080Y-90135073D01*
X143532639Y-90255656D01*
X143477122Y-90396438D01*
X143477069Y-90396882D01*
X143466500Y-90484898D01*
X143466500Y-90871102D01*
X143469834Y-90898865D01*
X143477122Y-90959561D01*
X143477122Y-90959563D01*
X143477123Y-90959564D01*
X143486484Y-90983302D01*
X143532639Y-91100343D01*
X143624079Y-91220924D01*
X143628474Y-91225319D01*
X143661959Y-91286642D01*
X143656975Y-91356334D01*
X143628474Y-91400681D01*
X143624079Y-91405075D01*
X143532639Y-91525656D01*
X143477122Y-91666438D01*
X143472852Y-91702000D01*
X143466500Y-91754898D01*
X143466500Y-92141102D01*
X143469481Y-92165922D01*
X143477122Y-92229561D01*
X143532639Y-92370343D01*
X143624077Y-92490922D01*
X143744656Y-92582360D01*
X143744657Y-92582360D01*
X143744658Y-92582361D01*
X143885436Y-92637877D01*
X143973898Y-92648500D01*
X143973903Y-92648500D01*
X145710097Y-92648500D01*
X145710102Y-92648500D01*
X145798564Y-92637877D01*
X145939342Y-92582361D01*
X146059922Y-92490922D01*
X146071616Y-92475500D01*
X146127804Y-92433977D01*
X146138311Y-92430654D01*
X146199004Y-92414392D01*
X146313132Y-92348500D01*
X147096253Y-91565377D01*
X147157576Y-91531893D01*
X147227267Y-91536877D01*
X147271615Y-91565378D01*
X147299927Y-91593690D01*
X147452801Y-91704760D01*
X147532347Y-91745290D01*
X147621163Y-91790545D01*
X147621165Y-91790545D01*
X147621168Y-91790547D01*
X147689474Y-91812741D01*
X147800881Y-91848940D01*
X147987514Y-91878500D01*
X147987519Y-91878500D01*
X148176486Y-91878500D01*
X148363118Y-91848940D01*
X148390632Y-91840000D01*
X148542832Y-91790547D01*
X148711199Y-91704760D01*
X148864073Y-91593690D01*
X148997690Y-91460073D01*
X149108760Y-91307199D01*
X149139838Y-91246205D01*
X149187813Y-91195409D01*
X149250323Y-91178500D01*
X151379324Y-91178500D01*
X151446363Y-91198185D01*
X151467005Y-91214819D01*
X152503159Y-92250972D01*
X152503169Y-92250983D01*
X152507499Y-92255313D01*
X152507500Y-92255314D01*
X152600686Y-92348500D01*
X152699226Y-92405392D01*
X152714814Y-92414392D01*
X152842107Y-92448500D01*
X152842108Y-92448500D01*
X152891909Y-92448500D01*
X152906688Y-92452186D01*
X152924222Y-92462459D01*
X152943720Y-92468185D01*
X152953751Y-92479761D01*
X152966972Y-92487508D01*
X152976169Y-92505633D01*
X152989475Y-92520989D01*
X152991655Y-92536152D01*
X152998588Y-92549815D01*
X152996526Y-92570030D01*
X152999419Y-92590147D01*
X152999154Y-92591897D01*
X152991500Y-92640224D01*
X152991500Y-95203267D01*
X152998016Y-95244405D01*
X153006354Y-95297054D01*
X153063950Y-95410092D01*
X153063952Y-95410094D01*
X153063954Y-95410097D01*
X153153652Y-95499795D01*
X153153654Y-95499796D01*
X153153658Y-95499800D01*
X153266696Y-95557396D01*
X153288249Y-95560809D01*
X153351383Y-95590738D01*
X153388315Y-95650049D01*
X153390836Y-95662412D01*
X153391500Y-95664890D01*
X153391500Y-95664892D01*
X153413595Y-95747354D01*
X153425608Y-95792187D01*
X153432630Y-95804349D01*
X153491500Y-95906314D01*
X153491501Y-95906315D01*
X153491502Y-95906316D01*
X154027159Y-96441972D01*
X154027169Y-96441983D01*
X154031499Y-96446313D01*
X154031500Y-96446314D01*
X154124686Y-96539500D01*
X154218539Y-96593686D01*
X154238814Y-96605392D01*
X154366107Y-96639500D01*
X154366108Y-96639500D01*
X154366109Y-96639500D01*
X156910890Y-96639500D01*
X156910892Y-96639500D01*
X157038186Y-96605392D01*
X157152314Y-96539500D01*
X158412104Y-95279707D01*
X158412109Y-95279704D01*
X158422312Y-95269500D01*
X158422314Y-95269500D01*
X158515500Y-95176314D01*
X158581392Y-95062186D01*
X158615500Y-94934892D01*
X158615500Y-90990575D01*
X161092500Y-90990575D01*
X161092500Y-91213424D01*
X161121585Y-91434354D01*
X161121588Y-91434367D01*
X161179263Y-91649618D01*
X161264545Y-91855502D01*
X161264554Y-91855520D01*
X161375964Y-92048491D01*
X161375973Y-92048504D01*
X161426540Y-92114403D01*
X161426543Y-92114403D01*
X162227887Y-91313059D01*
X162233389Y-91333591D01*
X162312381Y-91470408D01*
X162424092Y-91582119D01*
X162560909Y-91661111D01*
X162581439Y-91666612D01*
X161780095Y-92467955D01*
X161780095Y-92467956D01*
X161846007Y-92518533D01*
X162038985Y-92629949D01*
X162038997Y-92629954D01*
X162244881Y-92715236D01*
X162460132Y-92772911D01*
X162460145Y-92772914D01*
X162681075Y-92802000D01*
X162903925Y-92802000D01*
X163124854Y-92772914D01*
X163124867Y-92772911D01*
X163340118Y-92715236D01*
X163546002Y-92629954D01*
X163546020Y-92629945D01*
X163738991Y-92518535D01*
X163738995Y-92518533D01*
X163892013Y-92401117D01*
X163957182Y-92375922D01*
X164025627Y-92389960D01*
X164075617Y-92438774D01*
X164091500Y-92499492D01*
X164091500Y-94209324D01*
X164082855Y-94238764D01*
X164076332Y-94268751D01*
X164072577Y-94273766D01*
X164071815Y-94276363D01*
X164055181Y-94297005D01*
X163901005Y-94451181D01*
X163839682Y-94484666D01*
X163813324Y-94487500D01*
X162391298Y-94487500D01*
X162354432Y-94490401D01*
X162354426Y-94490402D01*
X162196606Y-94536254D01*
X162196603Y-94536255D01*
X162055137Y-94619917D01*
X162055129Y-94619923D01*
X161938923Y-94736129D01*
X161938917Y-94736137D01*
X161855255Y-94877603D01*
X161855254Y-94877606D01*
X161809402Y-95035426D01*
X161809401Y-95035432D01*
X161806500Y-95072298D01*
X161806500Y-96443701D01*
X161809401Y-96480567D01*
X161809402Y-96480573D01*
X161855254Y-96638393D01*
X161855255Y-96638396D01*
X161855256Y-96638398D01*
X161878300Y-96677363D01*
X161938917Y-96779862D01*
X161938923Y-96779870D01*
X162055129Y-96896076D01*
X162055133Y-96896079D01*
X162055135Y-96896081D01*
X162196602Y-96979744D01*
X162213587Y-96984678D01*
X162272472Y-97022284D01*
X162301679Y-97085756D01*
X162291933Y-97154943D01*
X162251879Y-97204072D01*
X162184505Y-97253022D01*
X162032025Y-97405502D01*
X162032025Y-97405503D01*
X161905271Y-97579963D01*
X161807372Y-97772098D01*
X161740733Y-97977190D01*
X161729519Y-98048000D01*
X162759291Y-98048000D01*
X162747548Y-98068339D01*
X162707000Y-98219667D01*
X162707000Y-98376333D01*
X162747548Y-98527661D01*
X162759291Y-98548000D01*
X161729519Y-98548000D01*
X161740733Y-98618809D01*
X161807372Y-98823901D01*
X161905271Y-99016036D01*
X162032025Y-99190496D01*
X162032025Y-99190497D01*
X162184502Y-99342974D01*
X162358963Y-99469728D01*
X162551098Y-99567627D01*
X162756190Y-99634265D01*
X162969180Y-99668000D01*
X163052000Y-99668000D01*
X163052000Y-98840709D01*
X163072339Y-98852452D01*
X163223667Y-98893000D01*
X163380333Y-98893000D01*
X163531661Y-98852452D01*
X163552000Y-98840709D01*
X163552000Y-99668000D01*
X163634820Y-99668000D01*
X163847809Y-99634265D01*
X164052901Y-99567627D01*
X164245036Y-99469728D01*
X164419496Y-99342974D01*
X164419497Y-99342974D01*
X164571974Y-99190497D01*
X164571974Y-99190496D01*
X164698728Y-99016036D01*
X164796627Y-98823901D01*
X164863266Y-98618809D01*
X164874481Y-98548000D01*
X163844709Y-98548000D01*
X163856452Y-98527661D01*
X163897000Y-98376333D01*
X163897000Y-98219667D01*
X163856452Y-98068339D01*
X163844709Y-98048000D01*
X164874481Y-98048000D01*
X164863266Y-97977190D01*
X164796627Y-97772098D01*
X164698728Y-97579963D01*
X164571974Y-97405503D01*
X164571974Y-97405502D01*
X164419496Y-97253024D01*
X164352121Y-97204073D01*
X164309456Y-97148742D01*
X164303477Y-97079129D01*
X164336083Y-97017334D01*
X164390412Y-96984678D01*
X164407398Y-96979744D01*
X164548865Y-96896081D01*
X164665081Y-96779865D01*
X164748744Y-96638398D01*
X164788807Y-96500501D01*
X164794597Y-96480573D01*
X164794598Y-96480567D01*
X164797500Y-96443694D01*
X164797500Y-95072306D01*
X164794598Y-95035431D01*
X164794596Y-95035426D01*
X164794543Y-95034744D01*
X164808906Y-94966366D01*
X164830477Y-94937335D01*
X164992499Y-94775315D01*
X165010683Y-94743821D01*
X165015121Y-94736135D01*
X165022704Y-94723000D01*
X165058392Y-94661186D01*
X165085053Y-94561686D01*
X165092500Y-94533893D01*
X165092500Y-94402108D01*
X165092500Y-88453108D01*
X165058392Y-88325814D01*
X164992500Y-88211686D01*
X164899314Y-88118500D01*
X164429319Y-87648505D01*
X164395834Y-87587182D01*
X164393000Y-87560824D01*
X164393000Y-87476038D01*
X164389246Y-87452338D01*
X164353590Y-87227215D01*
X164275741Y-86987621D01*
X164275739Y-86987618D01*
X164275739Y-86987616D01*
X164204562Y-86847924D01*
X164161370Y-86763155D01*
X164121796Y-86708686D01*
X164013298Y-86559350D01*
X164013294Y-86559345D01*
X163835154Y-86381205D01*
X163835149Y-86381201D01*
X163631348Y-86233132D01*
X163631347Y-86233131D01*
X163631345Y-86233130D01*
X163519661Y-86176224D01*
X163406883Y-86118760D01*
X163167285Y-86040910D01*
X162918462Y-86001500D01*
X162666538Y-86001500D01*
X162547575Y-86020342D01*
X162417714Y-86040910D01*
X162178116Y-86118760D01*
X161953651Y-86233132D01*
X161749850Y-86381201D01*
X161749845Y-86381205D01*
X161571705Y-86559345D01*
X161571701Y-86559350D01*
X161423632Y-86763151D01*
X161309260Y-86987616D01*
X161231410Y-87227214D01*
X161221411Y-87290343D01*
X161192000Y-87476038D01*
X161192000Y-87727962D01*
X161219300Y-87900324D01*
X161231410Y-87976785D01*
X161309260Y-88216383D01*
X161357917Y-88311876D01*
X161413331Y-88420633D01*
X161423632Y-88440848D01*
X161571701Y-88644649D01*
X161571705Y-88644654D01*
X161749845Y-88822794D01*
X161749850Y-88822798D01*
X161820897Y-88874416D01*
X161953655Y-88970870D01*
X162096684Y-89043747D01*
X162178116Y-89085239D01*
X162178118Y-89085239D01*
X162178121Y-89085241D01*
X162417715Y-89163090D01*
X162513683Y-89178290D01*
X162516297Y-89178704D01*
X162579432Y-89208633D01*
X162616363Y-89267945D01*
X162615365Y-89337807D01*
X162576755Y-89396040D01*
X162513085Y-89424116D01*
X162460143Y-89431086D01*
X162460132Y-89431088D01*
X162244881Y-89488763D01*
X162038997Y-89574045D01*
X162038979Y-89574054D01*
X161846011Y-89685462D01*
X161780095Y-89736042D01*
X162581440Y-90537387D01*
X162560909Y-90542889D01*
X162424092Y-90621881D01*
X162312381Y-90733592D01*
X162233389Y-90870409D01*
X162227887Y-90890940D01*
X161426542Y-90089595D01*
X161375962Y-90155511D01*
X161264554Y-90348479D01*
X161264545Y-90348497D01*
X161179263Y-90554381D01*
X161121588Y-90769632D01*
X161121585Y-90769645D01*
X161092500Y-90990575D01*
X158615500Y-90990575D01*
X158615500Y-85983676D01*
X158635185Y-85916637D01*
X158651819Y-85895995D01*
X159908995Y-84638819D01*
X159970318Y-84605334D01*
X159996676Y-84602500D01*
X161182166Y-84602500D01*
X161249205Y-84622185D01*
X161294960Y-84674989D01*
X161300096Y-84688180D01*
X161309258Y-84716379D01*
X161356251Y-84808606D01*
X161421488Y-84936642D01*
X161423632Y-84940848D01*
X161571701Y-85144649D01*
X161571705Y-85144654D01*
X161749845Y-85322794D01*
X161749850Y-85322798D01*
X161888918Y-85423836D01*
X161953655Y-85470870D01*
X162096684Y-85543747D01*
X162178116Y-85585239D01*
X162178118Y-85585239D01*
X162178121Y-85585241D01*
X162417715Y-85663090D01*
X162666538Y-85702500D01*
X162666539Y-85702500D01*
X162918461Y-85702500D01*
X162918462Y-85702500D01*
X163167285Y-85663090D01*
X163406879Y-85585241D01*
X163631345Y-85470870D01*
X163835156Y-85322793D01*
X164013293Y-85144656D01*
X164161370Y-84940845D01*
X164275741Y-84716379D01*
X164353590Y-84476785D01*
X164393000Y-84227962D01*
X164393000Y-83976038D01*
X164353590Y-83727215D01*
X164275741Y-83487621D01*
X164275739Y-83487618D01*
X164275739Y-83487616D01*
X164217393Y-83373107D01*
X164161370Y-83263155D01*
X164065855Y-83131689D01*
X164013298Y-83059350D01*
X164013294Y-83059345D01*
X163835154Y-82881205D01*
X163835149Y-82881201D01*
X163631348Y-82733132D01*
X163631347Y-82733131D01*
X163631345Y-82733130D01*
X163561247Y-82697413D01*
X163406883Y-82618760D01*
X163167285Y-82540910D01*
X163101553Y-82530499D01*
X162918462Y-82501500D01*
X162666538Y-82501500D01*
X162577218Y-82515647D01*
X162417714Y-82540910D01*
X162178116Y-82618760D01*
X161953651Y-82733132D01*
X161749850Y-82881201D01*
X161749845Y-82881205D01*
X161571705Y-83059345D01*
X161571701Y-83059350D01*
X161423632Y-83263151D01*
X161309258Y-83487620D01*
X161300096Y-83515820D01*
X161260658Y-83573495D01*
X161196299Y-83600692D01*
X161182166Y-83601500D01*
X159672108Y-83601500D01*
X159544812Y-83635608D01*
X159430686Y-83701500D01*
X159430683Y-83701502D01*
X157714502Y-85417683D01*
X157714500Y-85417686D01*
X157648608Y-85531812D01*
X157614500Y-85659108D01*
X157614500Y-94610324D01*
X157594815Y-94677363D01*
X157578181Y-94698005D01*
X157004180Y-95272005D01*
X156942857Y-95305490D01*
X156873165Y-95300506D01*
X156817232Y-95258634D01*
X156792815Y-95193170D01*
X156792499Y-95184351D01*
X156792499Y-92640232D01*
X156777646Y-92546446D01*
X156720050Y-92433408D01*
X156720046Y-92433404D01*
X156720045Y-92433402D01*
X156630347Y-92343704D01*
X156630344Y-92343702D01*
X156630342Y-92343700D01*
X156553517Y-92304555D01*
X156517301Y-92286102D01*
X156423524Y-92271250D01*
X156423519Y-92271250D01*
X156398481Y-92271250D01*
X156331442Y-92251565D01*
X156298672Y-92217198D01*
X156297450Y-92218137D01*
X156292498Y-92211684D01*
X156085923Y-92005109D01*
X156052438Y-91943786D01*
X156057422Y-91874094D01*
X156099294Y-91818161D01*
X156135284Y-91799497D01*
X156162832Y-91790547D01*
X156331199Y-91704760D01*
X156484073Y-91593690D01*
X156617690Y-91460073D01*
X156728760Y-91307199D01*
X156814547Y-91138832D01*
X156872940Y-90959118D01*
X156883030Y-90895413D01*
X156902500Y-90772486D01*
X156902500Y-90583513D01*
X156872940Y-90396881D01*
X156831408Y-90269060D01*
X156814547Y-90217168D01*
X156814545Y-90217165D01*
X156814545Y-90217163D01*
X156759838Y-90109795D01*
X156728760Y-90048801D01*
X156617690Y-89895927D01*
X156484073Y-89762310D01*
X156331199Y-89651240D01*
X156162836Y-89565454D01*
X155983118Y-89507059D01*
X155796486Y-89477500D01*
X155796481Y-89477500D01*
X155607519Y-89477500D01*
X155607514Y-89477500D01*
X155420881Y-89507059D01*
X155241163Y-89565454D01*
X155072800Y-89651240D01*
X154985579Y-89714610D01*
X154919927Y-89762310D01*
X154919925Y-89762312D01*
X154919924Y-89762312D01*
X154786312Y-89895924D01*
X154786312Y-89895925D01*
X154786310Y-89895927D01*
X154739443Y-89960434D01*
X154675240Y-90048800D01*
X154644162Y-90109795D01*
X154596187Y-90160591D01*
X154533677Y-90177500D01*
X153420676Y-90177500D01*
X153353637Y-90157815D01*
X153332995Y-90141181D01*
X150571814Y-87380000D01*
X154425391Y-87380000D01*
X155386314Y-87380000D01*
X155381920Y-87384394D01*
X155329259Y-87475606D01*
X155302000Y-87577339D01*
X155302000Y-87682661D01*
X155329259Y-87784394D01*
X155381920Y-87875606D01*
X155386314Y-87880000D01*
X154425391Y-87880000D01*
X154434009Y-87934413D01*
X154497244Y-88129029D01*
X154590140Y-88311349D01*
X154710417Y-88476894D01*
X154710417Y-88476895D01*
X154855104Y-88621582D01*
X155020650Y-88741859D01*
X155202968Y-88834754D01*
X155397578Y-88897988D01*
X155452000Y-88906607D01*
X155452000Y-87945686D01*
X155456394Y-87950080D01*
X155547606Y-88002741D01*
X155649339Y-88030000D01*
X155754661Y-88030000D01*
X155856394Y-88002741D01*
X155947606Y-87950080D01*
X155952000Y-87945686D01*
X155952000Y-88906606D01*
X156006421Y-88897988D01*
X156201031Y-88834754D01*
X156383349Y-88741859D01*
X156548894Y-88621582D01*
X156548895Y-88621582D01*
X156693582Y-88476895D01*
X156693582Y-88476894D01*
X156813859Y-88311349D01*
X156906755Y-88129029D01*
X156969990Y-87934413D01*
X156978609Y-87880000D01*
X156017686Y-87880000D01*
X156022080Y-87875606D01*
X156074741Y-87784394D01*
X156102000Y-87682661D01*
X156102000Y-87577339D01*
X156074741Y-87475606D01*
X156022080Y-87384394D01*
X156017686Y-87380000D01*
X156978609Y-87380000D01*
X156969990Y-87325586D01*
X156906755Y-87130970D01*
X156813859Y-86948650D01*
X156693582Y-86783105D01*
X156693582Y-86783104D01*
X156548895Y-86638417D01*
X156383349Y-86518140D01*
X156201029Y-86425244D01*
X156006413Y-86362009D01*
X155952000Y-86353390D01*
X155952000Y-87314314D01*
X155947606Y-87309920D01*
X155856394Y-87257259D01*
X155754661Y-87230000D01*
X155649339Y-87230000D01*
X155547606Y-87257259D01*
X155456394Y-87309920D01*
X155452000Y-87314314D01*
X155452000Y-86353390D01*
X155397586Y-86362009D01*
X155202970Y-86425244D01*
X155020650Y-86518140D01*
X154855105Y-86638417D01*
X154855104Y-86638417D01*
X154710417Y-86783104D01*
X154710417Y-86783105D01*
X154590140Y-86948650D01*
X154497244Y-87130970D01*
X154434009Y-87325586D01*
X154425391Y-87380000D01*
X150571814Y-87380000D01*
X150421316Y-87229502D01*
X150421314Y-87229500D01*
X150364250Y-87196554D01*
X150307187Y-87163608D01*
X150243539Y-87146554D01*
X150179892Y-87129500D01*
X150179891Y-87129500D01*
X149250323Y-87129500D01*
X149183284Y-87109815D01*
X149139838Y-87061795D01*
X149130778Y-87044014D01*
X149108760Y-87000801D01*
X148997690Y-86847927D01*
X148864073Y-86714310D01*
X148711199Y-86603240D01*
X148542836Y-86517454D01*
X148363118Y-86459059D01*
X148176486Y-86429500D01*
X148176481Y-86429500D01*
X147987519Y-86429500D01*
X147987514Y-86429500D01*
X147800881Y-86459059D01*
X147621163Y-86517454D01*
X147452800Y-86603240D01*
X147379557Y-86656455D01*
X147299927Y-86714310D01*
X147299925Y-86714312D01*
X147299924Y-86714312D01*
X147166312Y-86847924D01*
X147166312Y-86847925D01*
X147166310Y-86847927D01*
X147159453Y-86857365D01*
X147055240Y-87000800D01*
X146969454Y-87169163D01*
X146911059Y-87348881D01*
X146881500Y-87535513D01*
X146881500Y-87724486D01*
X146908697Y-87896200D01*
X146899742Y-87965493D01*
X146873905Y-88003279D01*
X146489498Y-88387686D01*
X146428175Y-88421171D01*
X146358483Y-88416187D01*
X146316461Y-88388000D01*
X143376176Y-88388000D01*
X143309137Y-88368315D01*
X143288495Y-88351681D01*
X142824812Y-87887998D01*
X143369704Y-87887998D01*
X143369705Y-87888000D01*
X146314295Y-87888000D01*
X146314295Y-87887998D01*
X146314100Y-87885513D01*
X146268281Y-87727801D01*
X146184685Y-87586447D01*
X146184678Y-87586438D01*
X146114484Y-87516244D01*
X146080999Y-87454921D01*
X146085983Y-87385229D01*
X146103358Y-87353643D01*
X146151361Y-87290342D01*
X146206877Y-87149564D01*
X146217500Y-87061102D01*
X146217500Y-86674898D01*
X146206877Y-86586436D01*
X146151361Y-86445658D01*
X146151360Y-86445657D01*
X146151360Y-86445656D01*
X146059920Y-86325075D01*
X146055526Y-86320681D01*
X146022041Y-86259358D01*
X146027025Y-86189666D01*
X146055526Y-86145319D01*
X146059920Y-86140924D01*
X146065217Y-86133940D01*
X146151361Y-86020342D01*
X146206877Y-85879564D01*
X146217500Y-85791102D01*
X146217500Y-85404898D01*
X146206877Y-85316436D01*
X146151361Y-85175658D01*
X146151360Y-85175657D01*
X146151360Y-85175656D01*
X146059920Y-85055075D01*
X146055526Y-85050681D01*
X146022041Y-84989358D01*
X146027025Y-84919666D01*
X146055526Y-84875319D01*
X146059920Y-84870924D01*
X146061749Y-84868513D01*
X146151361Y-84750342D01*
X146206877Y-84609564D01*
X146217500Y-84521102D01*
X146217500Y-84134898D01*
X146206877Y-84046436D01*
X146151361Y-83905658D01*
X146151360Y-83905657D01*
X146151360Y-83905656D01*
X146059922Y-83785077D01*
X145939343Y-83693639D01*
X145798561Y-83638122D01*
X145752926Y-83632642D01*
X145710102Y-83627500D01*
X143973898Y-83627500D01*
X143934853Y-83632188D01*
X143885438Y-83638122D01*
X143744656Y-83693639D01*
X143624077Y-83785077D01*
X143532639Y-83905656D01*
X143477122Y-84046438D01*
X143476223Y-84053927D01*
X143466500Y-84134898D01*
X143466500Y-84521102D01*
X143471531Y-84563000D01*
X143477122Y-84609561D01*
X143532639Y-84750343D01*
X143624079Y-84870924D01*
X143628474Y-84875319D01*
X143661959Y-84936642D01*
X143656975Y-85006334D01*
X143628474Y-85050681D01*
X143624079Y-85055075D01*
X143532639Y-85175656D01*
X143477122Y-85316438D01*
X143471531Y-85363000D01*
X143466500Y-85404898D01*
X143466500Y-85791102D01*
X143472126Y-85837954D01*
X143477122Y-85879561D01*
X143532639Y-86020343D01*
X143624079Y-86140924D01*
X143628474Y-86145319D01*
X143661959Y-86206642D01*
X143656975Y-86276334D01*
X143628474Y-86320681D01*
X143624079Y-86325075D01*
X143532639Y-86445656D01*
X143477122Y-86586438D01*
X143475105Y-86603240D01*
X143466500Y-86674898D01*
X143466500Y-87061102D01*
X143470018Y-87090394D01*
X143477122Y-87149561D01*
X143532639Y-87290343D01*
X143580638Y-87353639D01*
X143605461Y-87418951D01*
X143591033Y-87487314D01*
X143569515Y-87516245D01*
X143499321Y-87586438D01*
X143499314Y-87586447D01*
X143415718Y-87727801D01*
X143369899Y-87885513D01*
X143369704Y-87887998D01*
X142824812Y-87887998D01*
X142776819Y-87840005D01*
X142743334Y-87778682D01*
X142740500Y-87752324D01*
X142740500Y-85278110D01*
X142740500Y-85278108D01*
X142706392Y-85150814D01*
X142640500Y-85036686D01*
X142547314Y-84943500D01*
X141531314Y-83927500D01*
X141455144Y-83883523D01*
X141417187Y-83861608D01*
X141353539Y-83844554D01*
X141289892Y-83827500D01*
X141289891Y-83827500D01*
X141203680Y-83827500D01*
X141136641Y-83807815D01*
X141117200Y-83789786D01*
X141115915Y-83791072D01*
X141109925Y-83785082D01*
X141109922Y-83785078D01*
X141074538Y-83758245D01*
X140989343Y-83693639D01*
X140848561Y-83638122D01*
X140802926Y-83632642D01*
X140760102Y-83627500D01*
X139023898Y-83627500D01*
X138984853Y-83632188D01*
X138935438Y-83638122D01*
X138794656Y-83693639D01*
X138674077Y-83785077D01*
X138582639Y-83905656D01*
X138527122Y-84046438D01*
X138526223Y-84053927D01*
X138516500Y-84134898D01*
X138516500Y-84521102D01*
X138521531Y-84563000D01*
X138527122Y-84609561D01*
X138582639Y-84750343D01*
X138674079Y-84870924D01*
X138678474Y-84875319D01*
X138711959Y-84936642D01*
X138706975Y-85006334D01*
X138678474Y-85050681D01*
X138674079Y-85055075D01*
X138582639Y-85175656D01*
X138527122Y-85316438D01*
X138521531Y-85363000D01*
X138516500Y-85404898D01*
X138516500Y-85791102D01*
X138522126Y-85837954D01*
X138527122Y-85879561D01*
X138582639Y-86020343D01*
X138674079Y-86140924D01*
X138678474Y-86145319D01*
X138711959Y-86206642D01*
X138706975Y-86276334D01*
X138678474Y-86320681D01*
X138674079Y-86325075D01*
X138582639Y-86445656D01*
X138527122Y-86586437D01*
X138524284Y-86610076D01*
X138518932Y-86654650D01*
X138517002Y-86670721D01*
X138489465Y-86734935D01*
X138481567Y-86743618D01*
X138302459Y-86922726D01*
X138241136Y-86956211D01*
X138171444Y-86951227D01*
X138115511Y-86909355D01*
X138098596Y-86878378D01*
X138058797Y-86771671D01*
X138058793Y-86771664D01*
X137972547Y-86656455D01*
X137972544Y-86656452D01*
X137857335Y-86570206D01*
X137857328Y-86570202D01*
X137722486Y-86519910D01*
X137722485Y-86519909D01*
X137722483Y-86519909D01*
X137662873Y-86513500D01*
X137662863Y-86513500D01*
X137367130Y-86513500D01*
X137367108Y-86513502D01*
X137356146Y-86514680D01*
X137288396Y-86502770D01*
X137228354Y-86473389D01*
X137205312Y-86452320D01*
X137181001Y-86432730D01*
X137179738Y-86428937D01*
X137176790Y-86426241D01*
X137168797Y-86396064D01*
X137158936Y-86366436D01*
X137159924Y-86362563D01*
X137158901Y-86358700D01*
X137168495Y-86328981D01*
X137176215Y-86298736D01*
X137179139Y-86296013D01*
X137180367Y-86292210D01*
X137204509Y-86272392D01*
X137227352Y-86251126D01*
X137232387Y-86249509D01*
X137234373Y-86247880D01*
X137239229Y-86247313D01*
X137263460Y-86239536D01*
X137317416Y-86230990D01*
X137317417Y-86230990D01*
X137512031Y-86167755D01*
X137694349Y-86074859D01*
X137738921Y-86042474D01*
X137059447Y-85363000D01*
X137065661Y-85363000D01*
X137167394Y-85335741D01*
X137258606Y-85283080D01*
X137333080Y-85208606D01*
X137385741Y-85117394D01*
X137413000Y-85015661D01*
X137413000Y-85009447D01*
X138092474Y-85688921D01*
X138124859Y-85644349D01*
X138217755Y-85462031D01*
X138280990Y-85267417D01*
X138313000Y-85065317D01*
X138313000Y-84860682D01*
X138280990Y-84658582D01*
X138217755Y-84463968D01*
X138124859Y-84281650D01*
X138092474Y-84237077D01*
X138092474Y-84237076D01*
X137413000Y-84916551D01*
X137413000Y-84910339D01*
X137385741Y-84808606D01*
X137333080Y-84717394D01*
X137258606Y-84642920D01*
X137167394Y-84590259D01*
X137065661Y-84563000D01*
X137059446Y-84563000D01*
X137738922Y-83883524D01*
X137738921Y-83883523D01*
X137694359Y-83851147D01*
X137694350Y-83851141D01*
X137512031Y-83758244D01*
X137317417Y-83695009D01*
X137115317Y-83663000D01*
X136910683Y-83663000D01*
X136708582Y-83695009D01*
X136513965Y-83758245D01*
X136443794Y-83794000D01*
X136375125Y-83806896D01*
X136310385Y-83780619D01*
X136270128Y-83723513D01*
X136263500Y-83683515D01*
X136263500Y-83373109D01*
X136263500Y-83373108D01*
X136250572Y-83324861D01*
X136229392Y-83245814D01*
X136211814Y-83215368D01*
X136163500Y-83131686D01*
X136070314Y-83038500D01*
X134902819Y-81871005D01*
X134869334Y-81809682D01*
X134866500Y-81783324D01*
X134866500Y-81481885D01*
X134886185Y-81414846D01*
X134934203Y-81371401D01*
X135031887Y-81321629D01*
X135193675Y-81204083D01*
X135335083Y-81062675D01*
X135452629Y-80900887D01*
X135469679Y-80867422D01*
X135517652Y-80816628D01*
X135585473Y-80799832D01*
X135651608Y-80822368D01*
X135690649Y-80867423D01*
X135734271Y-80953036D01*
X135861025Y-81127496D01*
X135861025Y-81127497D01*
X136013502Y-81279974D01*
X136187963Y-81406728D01*
X136380098Y-81504627D01*
X136585190Y-81571266D01*
X136656000Y-81582481D01*
X136656000Y-80552709D01*
X136676339Y-80564452D01*
X136827667Y-80605000D01*
X136984333Y-80605000D01*
X137135661Y-80564452D01*
X137156000Y-80552709D01*
X137156000Y-81582480D01*
X137226809Y-81571266D01*
X137431901Y-81504627D01*
X137624036Y-81406728D01*
X137798496Y-81279974D01*
X137798497Y-81279974D01*
X137950974Y-81127497D01*
X137950974Y-81127496D01*
X138077730Y-80953034D01*
X138121350Y-80867424D01*
X138169324Y-80816628D01*
X138237145Y-80799832D01*
X138303280Y-80822369D01*
X138342319Y-80867422D01*
X138359369Y-80900884D01*
X138359371Y-80900887D01*
X138476917Y-81062675D01*
X138618325Y-81204083D01*
X138780113Y-81321629D01*
X138945499Y-81405898D01*
X138958299Y-81412420D01*
X139053393Y-81443317D01*
X139148490Y-81474216D01*
X139346009Y-81505500D01*
X139346010Y-81505500D01*
X139545990Y-81505500D01*
X139545991Y-81505500D01*
X139743510Y-81474216D01*
X139933703Y-81412419D01*
X140111887Y-81321629D01*
X140273675Y-81204083D01*
X140415083Y-81062675D01*
X140532629Y-80900887D01*
X140605515Y-80757840D01*
X140653490Y-80707045D01*
X140721311Y-80690250D01*
X140787446Y-80712788D01*
X140826484Y-80757840D01*
X140899371Y-80900887D01*
X141016917Y-81062675D01*
X141158325Y-81204083D01*
X141320113Y-81321629D01*
X141485499Y-81405898D01*
X141498299Y-81412420D01*
X141593393Y-81443317D01*
X141688490Y-81474216D01*
X141886009Y-81505500D01*
X141886010Y-81505500D01*
X142085990Y-81505500D01*
X142085991Y-81505500D01*
X142283510Y-81474216D01*
X142473703Y-81412419D01*
X142651887Y-81321629D01*
X142813675Y-81204083D01*
X142955083Y-81062675D01*
X143072629Y-80900887D01*
X143163419Y-80722703D01*
X143225216Y-80532510D01*
X143256500Y-80334991D01*
X143256500Y-79685009D01*
X143225216Y-79487490D01*
X143173963Y-79329749D01*
X143163420Y-79297299D01*
X143102715Y-79178159D01*
X143102714Y-79178157D01*
X143075635Y-79125013D01*
X144655000Y-79125013D01*
X144655000Y-79770000D01*
X145482291Y-79770000D01*
X145470548Y-79790339D01*
X145430000Y-79941667D01*
X145430000Y-80098333D01*
X145470548Y-80249661D01*
X145482291Y-80270000D01*
X144655001Y-80270000D01*
X144655001Y-80914986D01*
X144665494Y-81017697D01*
X144720641Y-81184119D01*
X144720643Y-81184124D01*
X144812684Y-81333345D01*
X144936654Y-81457315D01*
X145085875Y-81549356D01*
X145085880Y-81549358D01*
X145252302Y-81604505D01*
X145252309Y-81604506D01*
X145355019Y-81614999D01*
X145774999Y-81614999D01*
X145775000Y-81614998D01*
X145775000Y-80562709D01*
X145795339Y-80574452D01*
X145946667Y-80615000D01*
X146103333Y-80615000D01*
X146254661Y-80574452D01*
X146275000Y-80562709D01*
X146275000Y-81614999D01*
X146694972Y-81614999D01*
X146694986Y-81614998D01*
X146797697Y-81604505D01*
X146964119Y-81549358D01*
X146964124Y-81549356D01*
X147113345Y-81457315D01*
X147237315Y-81333345D01*
X147329356Y-81184124D01*
X147329358Y-81184119D01*
X147362212Y-81084973D01*
X147401984Y-81027528D01*
X147466500Y-81000705D01*
X147535276Y-81013020D01*
X147580236Y-81051092D01*
X147595917Y-81072675D01*
X147737325Y-81214083D01*
X147899113Y-81331629D01*
X148044873Y-81405898D01*
X148077299Y-81422420D01*
X148172393Y-81453317D01*
X148267490Y-81484216D01*
X148465009Y-81515500D01*
X148465010Y-81515500D01*
X148664990Y-81515500D01*
X148664991Y-81515500D01*
X148862510Y-81484216D01*
X149052703Y-81422419D01*
X149230887Y-81331629D01*
X149392675Y-81214083D01*
X149534083Y-81072675D01*
X149651629Y-80910887D01*
X149742419Y-80732703D01*
X149745669Y-80722703D01*
X149786777Y-80596183D01*
X149826214Y-80538507D01*
X149890572Y-80511308D01*
X149904708Y-80510500D01*
X150871324Y-80510500D01*
X150938363Y-80530185D01*
X150959005Y-80546819D01*
X151995159Y-81582972D01*
X151995169Y-81582983D01*
X151999499Y-81587313D01*
X151999500Y-81587314D01*
X152092686Y-81680500D01*
X152186539Y-81734686D01*
X152206814Y-81746392D01*
X152334107Y-81780500D01*
X152334108Y-81780500D01*
X154073501Y-81780500D01*
X154140540Y-81800185D01*
X154186295Y-81852989D01*
X154197501Y-81904500D01*
X154197501Y-82161518D01*
X154212354Y-82255304D01*
X154269950Y-82368342D01*
X154269952Y-82368344D01*
X154269954Y-82368347D01*
X154359652Y-82458045D01*
X154359654Y-82458046D01*
X154359658Y-82458050D01*
X154472694Y-82515645D01*
X154472698Y-82515647D01*
X154566475Y-82530499D01*
X154566481Y-82530500D01*
X156329518Y-82530499D01*
X156423304Y-82515646D01*
X156536342Y-82458050D01*
X156626050Y-82368342D01*
X156683646Y-82255304D01*
X156683646Y-82255302D01*
X156683647Y-82255301D01*
X156698499Y-82161524D01*
X156698500Y-82161519D01*
X156698499Y-80398482D01*
X156683646Y-80304696D01*
X156626050Y-80191658D01*
X156626046Y-80191654D01*
X156626045Y-80191652D01*
X156536347Y-80101954D01*
X156536344Y-80101952D01*
X156536342Y-80101950D01*
X156459517Y-80062805D01*
X156423301Y-80044352D01*
X156329524Y-80029500D01*
X156182266Y-80029500D01*
X156115227Y-80009815D01*
X156069472Y-79957011D01*
X156059528Y-79887853D01*
X156088553Y-79824297D01*
X156109375Y-79805186D01*
X156262646Y-79693828D01*
X156401828Y-79554646D01*
X156517524Y-79395405D01*
X156561955Y-79308205D01*
X156609930Y-79257409D01*
X156672440Y-79240500D01*
X157856324Y-79240500D01*
X157923363Y-79260185D01*
X157944005Y-79276819D01*
X159669686Y-81002500D01*
X159783814Y-81068392D01*
X159911108Y-81102500D01*
X160042893Y-81102500D01*
X161068000Y-81102500D01*
X161135039Y-81122185D01*
X161180794Y-81174989D01*
X161192000Y-81226500D01*
X161192000Y-81617701D01*
X161194901Y-81654567D01*
X161194902Y-81654573D01*
X161240753Y-81812392D01*
X161240755Y-81812395D01*
X161324417Y-81953861D01*
X161324423Y-81953869D01*
X161440630Y-82070076D01*
X161440634Y-82070079D01*
X161440636Y-82070081D01*
X161582103Y-82153744D01*
X161582104Y-82153744D01*
X161582107Y-82153746D01*
X161739926Y-82199597D01*
X161739929Y-82199597D01*
X161739931Y-82199598D01*
X161776806Y-82202500D01*
X161776814Y-82202500D01*
X163808186Y-82202500D01*
X163808194Y-82202500D01*
X163845069Y-82199598D01*
X163845071Y-82199597D01*
X163845073Y-82199597D01*
X164002892Y-82153746D01*
X164002893Y-82153745D01*
X164002897Y-82153744D01*
X164144364Y-82070081D01*
X164260581Y-81953864D01*
X164344244Y-81812397D01*
X164344245Y-81812393D01*
X164344246Y-81812392D01*
X164390097Y-81654573D01*
X164390098Y-81654567D01*
X164392999Y-81617701D01*
X164393000Y-81617694D01*
X164393000Y-79586306D01*
X164390098Y-79549431D01*
X164388486Y-79543882D01*
X164344246Y-79391607D01*
X164344244Y-79391604D01*
X164344244Y-79391603D01*
X164260581Y-79250136D01*
X164260579Y-79250134D01*
X164260576Y-79250130D01*
X164144369Y-79133923D01*
X164144361Y-79133917D01*
X164054548Y-79080802D01*
X164002897Y-79050256D01*
X164002896Y-79050255D01*
X164002895Y-79050255D01*
X164002892Y-79050253D01*
X163845073Y-79004402D01*
X163845067Y-79004401D01*
X163808201Y-79001500D01*
X163808194Y-79001500D01*
X161776806Y-79001500D01*
X161776798Y-79001500D01*
X161739932Y-79004401D01*
X161739926Y-79004402D01*
X161582107Y-79050253D01*
X161582104Y-79050255D01*
X161440638Y-79133917D01*
X161440630Y-79133923D01*
X161324423Y-79250130D01*
X161324417Y-79250138D01*
X161240755Y-79391604D01*
X161240753Y-79391607D01*
X161194902Y-79549426D01*
X161194901Y-79549432D01*
X161192000Y-79586298D01*
X161192000Y-79977500D01*
X161172315Y-80044539D01*
X161119511Y-80090294D01*
X161068000Y-80101500D01*
X160235676Y-80101500D01*
X160168637Y-80081815D01*
X160147995Y-80065181D01*
X158422316Y-78339502D01*
X158422314Y-78339500D01*
X158365250Y-78306554D01*
X158308187Y-78273608D01*
X158244539Y-78256554D01*
X158180892Y-78239500D01*
X158180891Y-78239500D01*
X156672440Y-78239500D01*
X156605401Y-78219815D01*
X156561955Y-78171795D01*
X156517523Y-78084594D01*
X156401828Y-77925354D01*
X156262646Y-77786172D01*
X156103405Y-77670476D01*
X155928029Y-77581117D01*
X155740826Y-77520290D01*
X155546422Y-77489500D01*
X155546417Y-77489500D01*
X155349583Y-77489500D01*
X155349578Y-77489500D01*
X155155173Y-77520290D01*
X154967970Y-77581117D01*
X154792594Y-77670476D01*
X154701741Y-77736485D01*
X154633354Y-77786172D01*
X154633352Y-77786174D01*
X154633351Y-77786174D01*
X154494174Y-77925351D01*
X154494174Y-77925352D01*
X154494172Y-77925354D01*
X154444485Y-77993741D01*
X154378476Y-78084594D01*
X154289117Y-78259970D01*
X154228290Y-78447173D01*
X154197500Y-78641577D01*
X154197500Y-78838422D01*
X154228290Y-79032826D01*
X154289117Y-79220029D01*
X154376539Y-79391603D01*
X154378476Y-79395405D01*
X154494172Y-79554646D01*
X154633354Y-79693828D01*
X154786621Y-79805184D01*
X154829285Y-79860512D01*
X154835264Y-79930125D01*
X154802658Y-79991920D01*
X154741819Y-80026278D01*
X154713735Y-80029500D01*
X154566482Y-80029500D01*
X154485519Y-80042323D01*
X154472696Y-80044354D01*
X154359658Y-80101950D01*
X154359657Y-80101951D01*
X154359652Y-80101954D01*
X154269954Y-80191652D01*
X154269951Y-80191657D01*
X154212352Y-80304698D01*
X154197500Y-80398475D01*
X154197500Y-80655500D01*
X154177815Y-80722539D01*
X154125011Y-80768294D01*
X154073500Y-80779500D01*
X152658675Y-80779500D01*
X152591636Y-80759815D01*
X152570994Y-80743181D01*
X152019471Y-80191658D01*
X151437314Y-79609500D01*
X151342308Y-79554648D01*
X151323187Y-79543608D01*
X151259539Y-79526554D01*
X151195892Y-79509500D01*
X151195891Y-79509500D01*
X149898210Y-79509500D01*
X149831171Y-79489815D01*
X149785416Y-79437011D01*
X149780279Y-79423818D01*
X149742420Y-79307299D01*
X149737324Y-79297297D01*
X149651629Y-79129113D01*
X149534083Y-78967325D01*
X149392675Y-78825917D01*
X149230887Y-78708371D01*
X149211261Y-78698371D01*
X149052700Y-78617579D01*
X148862511Y-78555784D01*
X148763750Y-78540142D01*
X148664991Y-78524500D01*
X148465009Y-78524500D01*
X148399169Y-78534928D01*
X148267488Y-78555784D01*
X148077299Y-78617579D01*
X147899112Y-78708371D01*
X147855545Y-78740025D01*
X147737325Y-78825917D01*
X147737323Y-78825919D01*
X147737322Y-78825919D01*
X147595916Y-78967325D01*
X147580235Y-78988909D01*
X147524904Y-79031574D01*
X147455291Y-79037552D01*
X147393496Y-79004945D01*
X147362212Y-78955026D01*
X147329358Y-78855880D01*
X147329356Y-78855875D01*
X147237315Y-78706654D01*
X147113345Y-78582684D01*
X146964124Y-78490643D01*
X146964119Y-78490641D01*
X146797697Y-78435494D01*
X146797690Y-78435493D01*
X146694986Y-78425000D01*
X146275000Y-78425000D01*
X146275000Y-79477290D01*
X146254661Y-79465548D01*
X146103333Y-79425000D01*
X145946667Y-79425000D01*
X145795339Y-79465548D01*
X145775000Y-79477290D01*
X145775000Y-78425000D01*
X145355028Y-78425000D01*
X145355012Y-78425001D01*
X145252302Y-78435494D01*
X145085880Y-78490641D01*
X145085875Y-78490643D01*
X144936654Y-78582684D01*
X144812684Y-78706654D01*
X144720643Y-78855875D01*
X144720641Y-78855880D01*
X144665494Y-79022302D01*
X144665493Y-79022309D01*
X144655000Y-79125013D01*
X143075635Y-79125013D01*
X143072630Y-79119115D01*
X143058238Y-79099306D01*
X142955083Y-78957325D01*
X142813675Y-78815917D01*
X142651887Y-78698371D01*
X142473700Y-78607579D01*
X142283511Y-78545784D01*
X142104313Y-78517402D01*
X142085991Y-78514500D01*
X141886009Y-78514500D01*
X141867687Y-78517402D01*
X141688488Y-78545784D01*
X141498299Y-78607579D01*
X141320112Y-78698371D01*
X141262781Y-78740025D01*
X141158325Y-78815917D01*
X141158323Y-78815919D01*
X141158322Y-78815919D01*
X141016919Y-78957322D01*
X141016919Y-78957323D01*
X141016917Y-78957325D01*
X141009654Y-78967322D01*
X140899367Y-79119117D01*
X140826484Y-79262158D01*
X140778510Y-79312954D01*
X140710689Y-79329749D01*
X140644554Y-79307211D01*
X140605516Y-79262158D01*
X140532632Y-79119117D01*
X140518238Y-79099306D01*
X140415083Y-78957325D01*
X140273675Y-78815917D01*
X140111887Y-78698371D01*
X139933700Y-78607579D01*
X139743511Y-78545784D01*
X139564313Y-78517402D01*
X139545991Y-78514500D01*
X139346009Y-78514500D01*
X139327687Y-78517402D01*
X139148488Y-78545784D01*
X138958299Y-78607579D01*
X138780112Y-78698371D01*
X138722781Y-78740025D01*
X138618325Y-78815917D01*
X138618323Y-78815919D01*
X138618322Y-78815919D01*
X138476919Y-78957322D01*
X138476919Y-78957323D01*
X138476917Y-78957325D01*
X138469654Y-78967322D01*
X138359371Y-79119112D01*
X138342319Y-79152578D01*
X138294343Y-79203373D01*
X138226522Y-79220167D01*
X138160388Y-79197628D01*
X138121350Y-79152575D01*
X138077730Y-79066965D01*
X137950974Y-78892503D01*
X137950974Y-78892502D01*
X137798497Y-78740025D01*
X137624036Y-78613271D01*
X137431899Y-78515372D01*
X137226805Y-78448733D01*
X137156000Y-78437518D01*
X137156000Y-79467290D01*
X137135661Y-79455548D01*
X136984333Y-79415000D01*
X136827667Y-79415000D01*
X136676339Y-79455548D01*
X136656000Y-79467290D01*
X136656000Y-78437518D01*
X136655999Y-78437518D01*
X136585194Y-78448733D01*
X136380100Y-78515372D01*
X136187963Y-78613271D01*
X136013503Y-78740025D01*
X136013502Y-78740025D01*
X135861025Y-78892502D01*
X135861025Y-78892503D01*
X135734267Y-79066968D01*
X135690648Y-79152576D01*
X135642674Y-79203372D01*
X135574853Y-79220167D01*
X135508718Y-79197629D01*
X135469679Y-79152576D01*
X135452629Y-79119113D01*
X135335083Y-78957325D01*
X135193675Y-78815917D01*
X135031887Y-78698371D01*
X134853700Y-78607579D01*
X134663511Y-78545784D01*
X134484313Y-78517402D01*
X134465991Y-78514500D01*
X134266009Y-78514500D01*
X134247687Y-78517402D01*
X134068488Y-78545784D01*
X133878299Y-78607579D01*
X133700112Y-78698371D01*
X133642781Y-78740025D01*
X133538325Y-78815917D01*
X133538323Y-78815919D01*
X133538322Y-78815919D01*
X133396918Y-78957323D01*
X133307205Y-79080802D01*
X133251874Y-79123467D01*
X133182261Y-79129446D01*
X133120466Y-79096840D01*
X133087811Y-79042511D01*
X133047745Y-78904606D01*
X133047744Y-78904603D01*
X133047744Y-78904602D01*
X132964081Y-78763135D01*
X132964079Y-78763133D01*
X132964076Y-78763129D01*
X132847870Y-78646923D01*
X132847862Y-78646917D01*
X132706396Y-78563255D01*
X132706393Y-78563254D01*
X132548573Y-78517402D01*
X132548567Y-78517401D01*
X132511701Y-78514500D01*
X132511694Y-78514500D01*
X131140306Y-78514500D01*
X131140298Y-78514500D01*
X131103432Y-78517401D01*
X131103426Y-78517402D01*
X130945606Y-78563254D01*
X130945603Y-78563255D01*
X130804137Y-78646917D01*
X130804129Y-78646923D01*
X130687923Y-78763129D01*
X130687917Y-78763137D01*
X130604255Y-78904603D01*
X130604254Y-78904606D01*
X130558402Y-79062426D01*
X130558401Y-79062432D01*
X130555500Y-79099298D01*
X130555500Y-80920701D01*
X130558401Y-80957567D01*
X130558402Y-80957573D01*
X130604254Y-81115393D01*
X130604255Y-81115396D01*
X130687917Y-81256862D01*
X130687923Y-81256870D01*
X130804129Y-81373076D01*
X130804133Y-81373079D01*
X130804135Y-81373081D01*
X130945602Y-81456744D01*
X130987224Y-81468836D01*
X131103426Y-81502597D01*
X131103429Y-81502597D01*
X131103431Y-81502598D01*
X131140306Y-81505500D01*
X131140314Y-81505500D01*
X132511686Y-81505500D01*
X132511694Y-81505500D01*
X132548569Y-81502598D01*
X132548571Y-81502597D01*
X132548573Y-81502597D01*
X132590191Y-81490505D01*
X132706398Y-81456744D01*
X132847865Y-81373081D01*
X132964081Y-81256865D01*
X133047744Y-81115398D01*
X133087811Y-80977488D01*
X133125417Y-80918602D01*
X133188889Y-80889396D01*
X133258076Y-80899142D01*
X133307204Y-80939196D01*
X133396917Y-81062675D01*
X133538325Y-81204083D01*
X133700113Y-81321629D01*
X133797796Y-81371401D01*
X133848591Y-81419374D01*
X133865500Y-81481885D01*
X133865500Y-81976108D01*
X133865500Y-82107892D01*
X133879869Y-82161517D01*
X133899608Y-82235187D01*
X133911221Y-82255301D01*
X133965500Y-82349314D01*
X133965502Y-82349316D01*
X135226181Y-83609995D01*
X135240884Y-83636922D01*
X135257477Y-83662741D01*
X135258368Y-83668941D01*
X135259666Y-83671318D01*
X135262500Y-83697676D01*
X135262500Y-83795186D01*
X135242815Y-83862225D01*
X135190011Y-83907980D01*
X135120853Y-83917924D01*
X135082206Y-83905671D01*
X134973839Y-83850455D01*
X134794118Y-83792059D01*
X134607486Y-83762500D01*
X134607481Y-83762500D01*
X134418519Y-83762500D01*
X134418514Y-83762500D01*
X134231881Y-83792059D01*
X134052163Y-83850454D01*
X133883800Y-83936240D01*
X133829024Y-83976038D01*
X133730927Y-84047310D01*
X133730925Y-84047312D01*
X133730924Y-84047312D01*
X133597312Y-84180924D01*
X133597312Y-84180925D01*
X133597310Y-84180927D01*
X133549610Y-84246579D01*
X133486240Y-84333800D01*
X133400454Y-84502163D01*
X133342059Y-84681881D01*
X133312500Y-84868513D01*
X133312500Y-85057486D01*
X133342059Y-85244118D01*
X133400454Y-85423836D01*
X133455471Y-85531812D01*
X133486240Y-85592199D01*
X133597310Y-85745073D01*
X133730927Y-85878690D01*
X133883801Y-85989760D01*
X133917519Y-86006940D01*
X134052163Y-86075545D01*
X134052165Y-86075545D01*
X134052168Y-86075547D01*
X134132378Y-86101609D01*
X134231875Y-86133938D01*
X134231876Y-86133938D01*
X134231882Y-86133940D01*
X134309900Y-86146296D01*
X134373032Y-86176224D01*
X134409964Y-86235536D01*
X134414500Y-86268769D01*
X134414500Y-86672561D01*
X134394815Y-86739600D01*
X134389767Y-86746872D01*
X134371204Y-86771668D01*
X134371202Y-86771671D01*
X134331404Y-86878378D01*
X134320909Y-86906517D01*
X134314500Y-86966127D01*
X134314500Y-87612186D01*
X134314501Y-87639000D01*
X134314501Y-88311876D01*
X134320908Y-88371483D01*
X134371202Y-88506328D01*
X134371203Y-88506330D01*
X134427418Y-88581423D01*
X134443256Y-88609615D01*
X134446008Y-88616484D01*
X134448608Y-88626186D01*
X134452815Y-88633472D01*
X134456105Y-88641684D01*
X134458031Y-88661796D01*
X134465000Y-88687803D01*
X134465000Y-88856010D01*
X134465001Y-88856011D01*
X134521622Y-88848558D01*
X134529477Y-88846453D01*
X134530210Y-88849190D01*
X134585994Y-88843168D01*
X134648488Y-88874416D01*
X134651713Y-88877527D01*
X134981500Y-89207314D01*
X135074686Y-89300500D01*
X135151556Y-89344881D01*
X135199771Y-89395449D01*
X135212993Y-89464056D01*
X135187025Y-89528920D01*
X135177236Y-89539949D01*
X134607686Y-90109500D01*
X134514502Y-90202683D01*
X134514500Y-90202686D01*
X134448608Y-90316812D01*
X134414500Y-90444108D01*
X134414500Y-90689500D01*
X134394815Y-90756539D01*
X134342011Y-90802294D01*
X134290501Y-90813500D01*
X134117130Y-90813500D01*
X134117123Y-90813501D01*
X134057516Y-90819908D01*
X133922671Y-90870202D01*
X133922668Y-90870204D01*
X133889997Y-90894662D01*
X133863141Y-90914766D01*
X133797679Y-90939184D01*
X133788831Y-90939500D01*
X133502323Y-90939500D01*
X133435284Y-90919815D01*
X133391838Y-90871795D01*
X133374269Y-90837314D01*
X133360760Y-90810801D01*
X133249690Y-90657927D01*
X133116073Y-90524310D01*
X132963199Y-90413240D01*
X132931093Y-90396881D01*
X132794836Y-90327454D01*
X132615118Y-90269059D01*
X132428486Y-90239500D01*
X132428481Y-90239500D01*
X132239519Y-90239500D01*
X132239514Y-90239500D01*
X132052881Y-90269059D01*
X131873163Y-90327454D01*
X131704800Y-90413240D01*
X131662315Y-90444108D01*
X131551927Y-90524310D01*
X131551925Y-90524312D01*
X131551924Y-90524312D01*
X131418312Y-90657924D01*
X131418312Y-90657925D01*
X131418310Y-90657927D01*
X131371076Y-90722939D01*
X131307238Y-90810803D01*
X131250319Y-90922512D01*
X131202345Y-90973307D01*
X131134524Y-90990102D01*
X131068389Y-90967564D01*
X131029350Y-90922510D01*
X130945861Y-90758652D01*
X130913474Y-90714077D01*
X130913474Y-90714076D01*
X130234000Y-91393551D01*
X130234000Y-91387339D01*
X130206741Y-91285606D01*
X130154080Y-91194394D01*
X130079606Y-91119920D01*
X129988394Y-91067259D01*
X129886661Y-91040000D01*
X129880446Y-91040000D01*
X130559922Y-90360524D01*
X130559921Y-90360523D01*
X130515359Y-90328147D01*
X130515350Y-90328141D01*
X130333031Y-90235244D01*
X130138417Y-90172009D01*
X129936317Y-90140000D01*
X129731683Y-90140000D01*
X129529582Y-90172009D01*
X129334968Y-90235244D01*
X129152644Y-90328143D01*
X129108077Y-90360523D01*
X129108077Y-90360524D01*
X129787554Y-91040000D01*
X129781339Y-91040000D01*
X129679606Y-91067259D01*
X129588394Y-91119920D01*
X129513920Y-91194394D01*
X129461259Y-91285606D01*
X129434000Y-91387339D01*
X129434000Y-91393553D01*
X128754524Y-90714077D01*
X128754523Y-90714077D01*
X128722143Y-90758644D01*
X128629244Y-90940968D01*
X128566009Y-91135582D01*
X128534000Y-91337682D01*
X124706500Y-91337682D01*
X124706500Y-87233682D01*
X130526000Y-87233682D01*
X130526000Y-87438317D01*
X130558009Y-87640417D01*
X130621244Y-87835031D01*
X130714141Y-88017350D01*
X130714147Y-88017359D01*
X130746523Y-88061921D01*
X130746524Y-88061922D01*
X131426000Y-87382446D01*
X131426000Y-87388661D01*
X131453259Y-87490394D01*
X131505920Y-87581606D01*
X131580394Y-87656080D01*
X131671606Y-87708741D01*
X131773339Y-87736000D01*
X131779553Y-87736000D01*
X131100076Y-88415474D01*
X131144650Y-88447859D01*
X131326968Y-88540755D01*
X131521582Y-88603990D01*
X131723683Y-88636000D01*
X131928317Y-88636000D01*
X132130417Y-88603990D01*
X132325031Y-88540755D01*
X132507349Y-88447859D01*
X132551921Y-88415474D01*
X132439771Y-88303324D01*
X133565001Y-88303324D01*
X133580442Y-88420628D01*
X133580444Y-88420633D01*
X133640899Y-88566585D01*
X133737075Y-88691924D01*
X133862414Y-88788100D01*
X134008366Y-88848555D01*
X134008372Y-88848557D01*
X134064998Y-88856011D01*
X134065000Y-88856010D01*
X134065000Y-87839000D01*
X133565001Y-87839000D01*
X133565001Y-88303324D01*
X132439771Y-88303324D01*
X131872447Y-87736000D01*
X131878661Y-87736000D01*
X131980394Y-87708741D01*
X132071606Y-87656080D01*
X132146080Y-87581606D01*
X132198741Y-87490394D01*
X132226000Y-87388661D01*
X132226000Y-87382447D01*
X132905474Y-88061921D01*
X132937859Y-88017349D01*
X133030754Y-87835031D01*
X133058605Y-87749319D01*
X133093990Y-87640417D01*
X133126000Y-87438317D01*
X133126000Y-87233682D01*
X133093990Y-87031582D01*
X133086632Y-87008937D01*
X133075497Y-86974669D01*
X133565000Y-86974669D01*
X133565000Y-87439000D01*
X134065000Y-87439000D01*
X134065000Y-86421987D01*
X134008368Y-86429444D01*
X133862413Y-86489899D01*
X133737075Y-86586075D01*
X133640899Y-86711413D01*
X133580445Y-86857365D01*
X133580444Y-86857369D01*
X133565000Y-86974669D01*
X133075497Y-86974669D01*
X133030755Y-86836968D01*
X132937859Y-86654650D01*
X132905474Y-86610077D01*
X132905474Y-86610076D01*
X132226000Y-87289551D01*
X132226000Y-87283339D01*
X132198741Y-87181606D01*
X132146080Y-87090394D01*
X132071606Y-87015920D01*
X131980394Y-86963259D01*
X131878661Y-86936000D01*
X131872446Y-86936000D01*
X132551922Y-86256524D01*
X132551921Y-86256523D01*
X132507359Y-86224147D01*
X132507350Y-86224141D01*
X132343488Y-86140649D01*
X132292692Y-86092674D01*
X132275897Y-86024853D01*
X132298434Y-85958718D01*
X132343489Y-85919679D01*
X132455197Y-85862761D01*
X132455196Y-85862761D01*
X132455199Y-85862760D01*
X132608073Y-85751690D01*
X132741690Y-85618073D01*
X132852760Y-85465199D01*
X132938547Y-85296832D01*
X132996940Y-85117118D01*
X133000215Y-85096443D01*
X133026500Y-84930486D01*
X133026500Y-84741513D01*
X132996940Y-84554881D01*
X132938545Y-84375163D01*
X132863542Y-84227962D01*
X132852760Y-84206801D01*
X132741690Y-84053927D01*
X132608073Y-83920310D01*
X132455199Y-83809240D01*
X132450599Y-83806896D01*
X132286836Y-83723454D01*
X132107118Y-83665059D01*
X131920486Y-83635500D01*
X131920481Y-83635500D01*
X131731519Y-83635500D01*
X131731514Y-83635500D01*
X131544881Y-83665059D01*
X131365163Y-83723454D01*
X131196800Y-83809240D01*
X131139121Y-83851147D01*
X131043927Y-83920310D01*
X131043925Y-83920312D01*
X131043924Y-83920312D01*
X130910312Y-84053924D01*
X130910312Y-84053925D01*
X130910310Y-84053927D01*
X130862610Y-84119579D01*
X130799240Y-84206800D01*
X130713454Y-84375163D01*
X130655059Y-84554881D01*
X130625500Y-84741513D01*
X130625500Y-84930486D01*
X130655059Y-85117118D01*
X130713454Y-85296836D01*
X130797626Y-85462031D01*
X130799240Y-85465199D01*
X130910310Y-85618073D01*
X131043927Y-85751690D01*
X131196801Y-85862760D01*
X131229781Y-85879564D01*
X131308511Y-85919679D01*
X131359307Y-85967654D01*
X131376102Y-86035475D01*
X131353565Y-86101609D01*
X131308511Y-86140649D01*
X131144644Y-86224143D01*
X131100077Y-86256523D01*
X131100077Y-86256524D01*
X131779554Y-86936000D01*
X131773339Y-86936000D01*
X131671606Y-86963259D01*
X131580394Y-87015920D01*
X131505920Y-87090394D01*
X131453259Y-87181606D01*
X131426000Y-87283339D01*
X131426000Y-87289553D01*
X130746524Y-86610077D01*
X130746523Y-86610077D01*
X130714143Y-86654644D01*
X130621244Y-86836968D01*
X130558009Y-87031582D01*
X130526000Y-87233682D01*
X124706500Y-87233682D01*
X124706500Y-76824500D01*
X124726185Y-76757461D01*
X124778989Y-76711706D01*
X124830500Y-76700500D01*
X167015500Y-76700500D01*
X167082539Y-76720185D01*
G37*
%TD.AperFunction*%
%TD*%
M02*
