%TF.GenerationSoftware,KiCad,Pcbnew,9.0.1*%
%TF.CreationDate,2026-03-24T11:04:08+01:00*%
%TF.ProjectId,duet_dac,64756574-5f64-4616-932e-6b696361645f,rev?*%
%TF.SameCoordinates,Original*%
%TF.FileFunction,Copper,L2,Bot*%
%TF.FilePolarity,Positive*%
%FSLAX46Y46*%
G04 Gerber Fmt 4.6, Leading zero omitted, Abs format (unit mm)*
G04 Created by KiCad (PCBNEW 9.0.1) date 2026-03-24 11:04:08*
%MOMM*%
%LPD*%
G01*
G04 APERTURE LIST*
G04 Aperture macros list*
%AMRoundRect*
0 Rectangle with rounded corners*
0 $1 Rounding radius*
0 $2 $3 $4 $5 $6 $7 $8 $9 X,Y pos of 4 corners*
0 Add a 4 corners polygon primitive as box body*
4,1,4,$2,$3,$4,$5,$6,$7,$8,$9,$2,$3,0*
0 Add four circle primitives for the rounded corners*
1,1,$1+$1,$2,$3*
1,1,$1+$1,$4,$5*
1,1,$1+$1,$6,$7*
1,1,$1+$1,$8,$9*
0 Add four rect primitives between the rounded corners*
20,1,$1+$1,$2,$3,$4,$5,0*
20,1,$1+$1,$4,$5,$6,$7,0*
20,1,$1+$1,$6,$7,$8,$9,0*
20,1,$1+$1,$8,$9,$2,$3,0*%
G04 Aperture macros list end*
%TA.AperFunction,ComponentPad*%
%ADD10C,1.600000*%
%TD*%
%TA.AperFunction,ComponentPad*%
%ADD11RoundRect,0.250001X-0.949999X0.949999X-0.949999X-0.949999X0.949999X-0.949999X0.949999X0.949999X0*%
%TD*%
%TA.AperFunction,ComponentPad*%
%ADD12C,2.400000*%
%TD*%
%TA.AperFunction,ComponentPad*%
%ADD13O,1.600000X1.600000*%
%TD*%
%TA.AperFunction,ComponentPad*%
%ADD14R,1.700000X1.700000*%
%TD*%
%TA.AperFunction,ComponentPad*%
%ADD15C,1.700000*%
%TD*%
%TA.AperFunction,ComponentPad*%
%ADD16RoundRect,0.250000X0.620000X0.845000X-0.620000X0.845000X-0.620000X-0.845000X0.620000X-0.845000X0*%
%TD*%
%TA.AperFunction,ComponentPad*%
%ADD17O,1.740000X2.190000*%
%TD*%
%TA.AperFunction,ComponentPad*%
%ADD18RoundRect,0.250000X-0.620000X-0.845000X0.620000X-0.845000X0.620000X0.845000X-0.620000X0.845000X0*%
%TD*%
%TA.AperFunction,ComponentPad*%
%ADD19RoundRect,0.250000X-0.845000X0.620000X-0.845000X-0.620000X0.845000X-0.620000X0.845000X0.620000X0*%
%TD*%
%TA.AperFunction,ComponentPad*%
%ADD20O,2.190000X1.740000*%
%TD*%
%TA.AperFunction,ViaPad*%
%ADD21C,0.600000*%
%TD*%
%TA.AperFunction,Conductor*%
%ADD22C,0.200000*%
%TD*%
G04 APERTURE END LIST*
D10*
%TO.P,C4,1*%
%TO.N,+12V*%
X133350000Y-96413000D03*
%TO.P,C4,2*%
%TO.N,GND*%
X133350000Y-98913000D03*
%TD*%
D11*
%TO.P,J4,1,Pin_1*%
%TO.N,Net-(J4-Pin_1)*%
X162792500Y-80602000D03*
D12*
%TO.P,J4,2,Pin_2*%
%TO.N,Net-(J4-Pin_2)*%
X162792500Y-84102000D03*
%TO.P,J4,3,Pin_3*%
%TO.N,Net-(J3-Pin_1)*%
X162792500Y-87602000D03*
%TO.P,J4,4,Pin_4*%
%TO.N,GND*%
X162792500Y-91102000D03*
%TD*%
D10*
%TO.P,R2,1*%
%TO.N,Net-(U1B-+)*%
X136398000Y-95123000D03*
D13*
%TO.P,R2,2*%
%TO.N,GND*%
X144018000Y-95123000D03*
%TD*%
D14*
%TO.P,JP1,1,A*%
%TO.N,Net-(J12-Pin_2)*%
X155448000Y-81280000D03*
D15*
%TO.P,JP1,2,B*%
%TO.N,Net-(J4-Pin_1)*%
X155448000Y-78740000D03*
%TD*%
D10*
%TO.P,R3,1*%
%TO.N,Net-(U1C--)*%
X148082000Y-87630000D03*
D13*
%TO.P,R3,2*%
%TO.N,GND*%
X155702000Y-87630000D03*
%TD*%
D10*
%TO.P,C1,1*%
%TO.N,+5V*%
X131826000Y-84836000D03*
%TO.P,C1,2*%
%TO.N,GND*%
X131826000Y-87336000D03*
%TD*%
D16*
%TO.P,J2,1,Pin_1*%
%TO.N,+12V*%
X129794000Y-96520000D03*
D17*
%TO.P,J2,2,Pin_2*%
%TO.N,GND*%
X127254000Y-96520000D03*
%TD*%
D10*
%TO.P,C3,1*%
%TO.N,+5V*%
X134513000Y-84963000D03*
%TO.P,C3,2*%
%TO.N,GND*%
X137013000Y-84963000D03*
%TD*%
D18*
%TO.P,J12,1,Pin_1*%
%TO.N,GND*%
X146025000Y-80020000D03*
D17*
%TO.P,J12,2,Pin_2*%
%TO.N,Net-(J12-Pin_2)*%
X148565000Y-80020000D03*
%TD*%
D10*
%TO.P,C2,1*%
%TO.N,+5V*%
X132334000Y-91440000D03*
%TO.P,C2,2*%
%TO.N,GND*%
X129834000Y-91440000D03*
%TD*%
%TO.P,R4,1*%
%TO.N,/CTRL_10V*%
X148082000Y-90678000D03*
D13*
%TO.P,R4,2*%
%TO.N,Net-(U1C--)*%
X155702000Y-90678000D03*
%TD*%
D10*
%TO.P,R1,1*%
%TO.N,/CTRL_5V*%
X144018000Y-98425000D03*
D13*
%TO.P,R1,2*%
%TO.N,Net-(U1B-+)*%
X136398000Y-98425000D03*
%TD*%
D18*
%TO.P,J1,1,Pin_1*%
%TO.N,+5V*%
X131826000Y-80010000D03*
D17*
%TO.P,J1,2,Pin_2*%
%TO.N,Net-(J1-Pin_2)*%
X134366000Y-80010000D03*
%TO.P,J1,3,Pin_3*%
%TO.N,GND*%
X136906000Y-80010000D03*
%TO.P,J1,4,Pin_4*%
%TO.N,unconnected-(J1-Pin_4-Pad4)*%
X139446000Y-80010000D03*
%TO.P,J1,5,Pin_5*%
%TO.N,unconnected-(J1-Pin_5-Pad5)*%
X141986000Y-80010000D03*
%TD*%
D19*
%TO.P,J3,1,Pin_1*%
%TO.N,Net-(J3-Pin_1)*%
X163302000Y-95758000D03*
D20*
%TO.P,J3,2,Pin_2*%
%TO.N,GND*%
X163302000Y-98298000D03*
%TD*%
D21*
%TO.N,+12V*%
X141478000Y-90170000D03*
%TD*%
D22*
%TO.N,+5V*%
X132207000Y-85090000D02*
X134513000Y-85090000D01*
X130048000Y-89154000D02*
X132334000Y-91440000D01*
X131826000Y-84836000D02*
X130048000Y-86614000D01*
X131826000Y-80010000D02*
X131826000Y-84836000D01*
X131826000Y-84836000D02*
X131953000Y-84836000D01*
X131953000Y-84836000D02*
X132207000Y-85090000D01*
X130048000Y-86614000D02*
X130048000Y-89154000D01*
%TO.N,+12V*%
X129921000Y-96393000D02*
X129794000Y-96520000D01*
X141478000Y-90170000D02*
X141478000Y-93599000D01*
X141478000Y-93599000D02*
X138684000Y-96393000D01*
X138684000Y-96393000D02*
X133330000Y-96393000D01*
X133330000Y-96393000D02*
X133350000Y-96413000D01*
X133330000Y-96393000D02*
X129921000Y-96393000D01*
%TD*%
%TA.AperFunction,Conductor*%
%TO.N,GND*%
G36*
X167082539Y-76720185D02*
G01*
X167128294Y-76772989D01*
X167139500Y-76824500D01*
X167139500Y-101483500D01*
X167119815Y-101550539D01*
X167067011Y-101596294D01*
X167015500Y-101607500D01*
X124830500Y-101607500D01*
X124763461Y-101587815D01*
X124717706Y-101535011D01*
X124706500Y-101483500D01*
X124706500Y-96187179D01*
X125884000Y-96187179D01*
X125884000Y-96270000D01*
X126711291Y-96270000D01*
X126699548Y-96290339D01*
X126659000Y-96441667D01*
X126659000Y-96598333D01*
X126699548Y-96749661D01*
X126711291Y-96770000D01*
X125884000Y-96770000D01*
X125884000Y-96852820D01*
X125917734Y-97065809D01*
X125984372Y-97270901D01*
X126082271Y-97463036D01*
X126209025Y-97637496D01*
X126209025Y-97637497D01*
X126361502Y-97789974D01*
X126535963Y-97916728D01*
X126728098Y-98014627D01*
X126933190Y-98081266D01*
X127004000Y-98092481D01*
X127004000Y-97062709D01*
X127024339Y-97074452D01*
X127175667Y-97115000D01*
X127332333Y-97115000D01*
X127483661Y-97074452D01*
X127504000Y-97062709D01*
X127504000Y-98092480D01*
X127574809Y-98081266D01*
X127779901Y-98014627D01*
X127972036Y-97916728D01*
X128146496Y-97789974D01*
X128146497Y-97789974D01*
X128298974Y-97637497D01*
X128298979Y-97637491D01*
X128347926Y-97570122D01*
X128403255Y-97527456D01*
X128472869Y-97521477D01*
X128534664Y-97554082D01*
X128567320Y-97608410D01*
X128572255Y-97625396D01*
X128572256Y-97625398D01*
X128582623Y-97642927D01*
X128655917Y-97766862D01*
X128655923Y-97766870D01*
X128772129Y-97883076D01*
X128772133Y-97883079D01*
X128772135Y-97883081D01*
X128913602Y-97966744D01*
X128949557Y-97977190D01*
X129071426Y-98012597D01*
X129071429Y-98012597D01*
X129071431Y-98012598D01*
X129108306Y-98015500D01*
X129108314Y-98015500D01*
X130479686Y-98015500D01*
X130479694Y-98015500D01*
X130516569Y-98012598D01*
X130516571Y-98012597D01*
X130516573Y-98012597D01*
X130558191Y-98000505D01*
X130674398Y-97966744D01*
X130815865Y-97883081D01*
X130932081Y-97766865D01*
X131015744Y-97625398D01*
X131061598Y-97467569D01*
X131064500Y-97430694D01*
X131064500Y-97017500D01*
X131084185Y-96950461D01*
X131136989Y-96904706D01*
X131188500Y-96893500D01*
X132171487Y-96893500D01*
X132238526Y-96913185D01*
X132281972Y-96961206D01*
X132323238Y-97042197D01*
X132346673Y-97074452D01*
X132434310Y-97195073D01*
X132567927Y-97328690D01*
X132720801Y-97439760D01*
X132803712Y-97482005D01*
X132832511Y-97496679D01*
X132883307Y-97544654D01*
X132900102Y-97612475D01*
X132877565Y-97678609D01*
X132832511Y-97717649D01*
X132668644Y-97801143D01*
X132624077Y-97833523D01*
X132624077Y-97833524D01*
X133303554Y-98513000D01*
X133297339Y-98513000D01*
X133195606Y-98540259D01*
X133104394Y-98592920D01*
X133029920Y-98667394D01*
X132977259Y-98758606D01*
X132950000Y-98860339D01*
X132950000Y-98866553D01*
X132270524Y-98187077D01*
X132270523Y-98187077D01*
X132238143Y-98231644D01*
X132145244Y-98413968D01*
X132082009Y-98608582D01*
X132050000Y-98810682D01*
X132050000Y-99015317D01*
X132082009Y-99217417D01*
X132145244Y-99412031D01*
X132238141Y-99594350D01*
X132238147Y-99594359D01*
X132270523Y-99638921D01*
X132270524Y-99638922D01*
X132950000Y-98959446D01*
X132950000Y-98965661D01*
X132977259Y-99067394D01*
X133029920Y-99158606D01*
X133104394Y-99233080D01*
X133195606Y-99285741D01*
X133297339Y-99313000D01*
X133303553Y-99313000D01*
X132624076Y-99992474D01*
X132668650Y-100024859D01*
X132850968Y-100117755D01*
X133045582Y-100180990D01*
X133247683Y-100213000D01*
X133452317Y-100213000D01*
X133654417Y-100180990D01*
X133849031Y-100117755D01*
X134031349Y-100024859D01*
X134075921Y-99992474D01*
X133396447Y-99313000D01*
X133402661Y-99313000D01*
X133504394Y-99285741D01*
X133595606Y-99233080D01*
X133670080Y-99158606D01*
X133722741Y-99067394D01*
X133750000Y-98965661D01*
X133750000Y-98959448D01*
X134429474Y-99638922D01*
X134429474Y-99638921D01*
X134461859Y-99594349D01*
X134554755Y-99412031D01*
X134617990Y-99217417D01*
X134650000Y-99015317D01*
X134650000Y-98810682D01*
X134617990Y-98608582D01*
X134554754Y-98413965D01*
X134538438Y-98381943D01*
X134538437Y-98381942D01*
X134512232Y-98330513D01*
X135197500Y-98330513D01*
X135197500Y-98519486D01*
X135227059Y-98706118D01*
X135285454Y-98885836D01*
X135351795Y-99016036D01*
X135371240Y-99054199D01*
X135482310Y-99207073D01*
X135615927Y-99340690D01*
X135768801Y-99451760D01*
X135848347Y-99492290D01*
X135937163Y-99537545D01*
X135937165Y-99537545D01*
X135937168Y-99537547D01*
X136029744Y-99567627D01*
X136116881Y-99595940D01*
X136303514Y-99625500D01*
X136303519Y-99625500D01*
X136492486Y-99625500D01*
X136679118Y-99595940D01*
X136684015Y-99594349D01*
X136858832Y-99537547D01*
X137027199Y-99451760D01*
X137180073Y-99340690D01*
X137313690Y-99207073D01*
X137424760Y-99054199D01*
X137510547Y-98885832D01*
X137568940Y-98706118D01*
X137575716Y-98663338D01*
X137598500Y-98519486D01*
X137598500Y-98330513D01*
X142817500Y-98330513D01*
X142817500Y-98519486D01*
X142847059Y-98706118D01*
X142905454Y-98885836D01*
X142971795Y-99016036D01*
X142991240Y-99054199D01*
X143102310Y-99207073D01*
X143235927Y-99340690D01*
X143388801Y-99451760D01*
X143468347Y-99492290D01*
X143557163Y-99537545D01*
X143557165Y-99537545D01*
X143557168Y-99537547D01*
X143649744Y-99567627D01*
X143736881Y-99595940D01*
X143923514Y-99625500D01*
X143923519Y-99625500D01*
X144112486Y-99625500D01*
X144299118Y-99595940D01*
X144304015Y-99594349D01*
X144478832Y-99537547D01*
X144647199Y-99451760D01*
X144800073Y-99340690D01*
X144933690Y-99207073D01*
X145044760Y-99054199D01*
X145130547Y-98885832D01*
X145188940Y-98706118D01*
X145195716Y-98663338D01*
X145218500Y-98519486D01*
X145218500Y-98330513D01*
X145188940Y-98143881D01*
X145147226Y-98015500D01*
X145130547Y-97964168D01*
X145130545Y-97964165D01*
X145130545Y-97964163D01*
X145058049Y-97821882D01*
X145044760Y-97795801D01*
X145001182Y-97735821D01*
X146116499Y-97735821D01*
X146141497Y-97861488D01*
X146141499Y-97861494D01*
X146190533Y-97979874D01*
X146190538Y-97979883D01*
X146261723Y-98086418D01*
X146261726Y-98086422D01*
X146352327Y-98177023D01*
X146352331Y-98177026D01*
X146458866Y-98248211D01*
X146458872Y-98248214D01*
X146458873Y-98248215D01*
X146577256Y-98297251D01*
X146577260Y-98297251D01*
X146577261Y-98297252D01*
X146702928Y-98322250D01*
X146702931Y-98322250D01*
X146831071Y-98322250D01*
X146915615Y-98305432D01*
X146956744Y-98297251D01*
X147075127Y-98248215D01*
X147181669Y-98177026D01*
X147272276Y-98086419D01*
X147343465Y-97979877D01*
X147392501Y-97861494D01*
X147406728Y-97789974D01*
X147417500Y-97735821D01*
X156366499Y-97735821D01*
X156391497Y-97861488D01*
X156391499Y-97861494D01*
X156440533Y-97979874D01*
X156440538Y-97979883D01*
X156511723Y-98086418D01*
X156511726Y-98086422D01*
X156602327Y-98177023D01*
X156602331Y-98177026D01*
X156708866Y-98248211D01*
X156708872Y-98248214D01*
X156708873Y-98248215D01*
X156827256Y-98297251D01*
X156827260Y-98297251D01*
X156827261Y-98297252D01*
X156952928Y-98322250D01*
X156952931Y-98322250D01*
X157081071Y-98322250D01*
X157165615Y-98305432D01*
X157206744Y-98297251D01*
X157325127Y-98248215D01*
X157431669Y-98177026D01*
X157522276Y-98086419D01*
X157547946Y-98048000D01*
X161729519Y-98048000D01*
X162759291Y-98048000D01*
X162747548Y-98068339D01*
X162707000Y-98219667D01*
X162707000Y-98376333D01*
X162747548Y-98527661D01*
X162759291Y-98548000D01*
X161729519Y-98548000D01*
X161740733Y-98618809D01*
X161807372Y-98823901D01*
X161905271Y-99016036D01*
X162032025Y-99190496D01*
X162032025Y-99190497D01*
X162184502Y-99342974D01*
X162358963Y-99469728D01*
X162551098Y-99567627D01*
X162756190Y-99634265D01*
X162969180Y-99668000D01*
X163052000Y-99668000D01*
X163052000Y-98840709D01*
X163072339Y-98852452D01*
X163223667Y-98893000D01*
X163380333Y-98893000D01*
X163531661Y-98852452D01*
X163552000Y-98840709D01*
X163552000Y-99668000D01*
X163634820Y-99668000D01*
X163847809Y-99634265D01*
X164052901Y-99567627D01*
X164245036Y-99469728D01*
X164419496Y-99342974D01*
X164419497Y-99342974D01*
X164571974Y-99190497D01*
X164571974Y-99190496D01*
X164698728Y-99016036D01*
X164796627Y-98823901D01*
X164863266Y-98618809D01*
X164874481Y-98548000D01*
X163844709Y-98548000D01*
X163856452Y-98527661D01*
X163897000Y-98376333D01*
X163897000Y-98219667D01*
X163856452Y-98068339D01*
X163844709Y-98048000D01*
X164874481Y-98048000D01*
X164863266Y-97977190D01*
X164796627Y-97772098D01*
X164698728Y-97579963D01*
X164571974Y-97405503D01*
X164571974Y-97405502D01*
X164419496Y-97253024D01*
X164352121Y-97204073D01*
X164309456Y-97148742D01*
X164303477Y-97079129D01*
X164336083Y-97017334D01*
X164390412Y-96984678D01*
X164407398Y-96979744D01*
X164548865Y-96896081D01*
X164665081Y-96779865D01*
X164748744Y-96638398D01*
X164794598Y-96480569D01*
X164797500Y-96443694D01*
X164797500Y-95072306D01*
X164794598Y-95035431D01*
X164792588Y-95028513D01*
X164748745Y-94877606D01*
X164748744Y-94877603D01*
X164748744Y-94877602D01*
X164665081Y-94736135D01*
X164665079Y-94736133D01*
X164665076Y-94736129D01*
X164548870Y-94619923D01*
X164548862Y-94619917D01*
X164407396Y-94536255D01*
X164407393Y-94536254D01*
X164249573Y-94490402D01*
X164249567Y-94490401D01*
X164212701Y-94487500D01*
X164212694Y-94487500D01*
X162391306Y-94487500D01*
X162391298Y-94487500D01*
X162354432Y-94490401D01*
X162354426Y-94490402D01*
X162196606Y-94536254D01*
X162196603Y-94536255D01*
X162055137Y-94619917D01*
X162055129Y-94619923D01*
X161938923Y-94736129D01*
X161938917Y-94736137D01*
X161855255Y-94877603D01*
X161855254Y-94877606D01*
X161809402Y-95035426D01*
X161809401Y-95035432D01*
X161806500Y-95072298D01*
X161806500Y-96443701D01*
X161809401Y-96480567D01*
X161809402Y-96480573D01*
X161855254Y-96638393D01*
X161855255Y-96638396D01*
X161938917Y-96779862D01*
X161938923Y-96779870D01*
X162055129Y-96896076D01*
X162055133Y-96896079D01*
X162055135Y-96896081D01*
X162196602Y-96979744D01*
X162213587Y-96984678D01*
X162272472Y-97022284D01*
X162301679Y-97085756D01*
X162291933Y-97154943D01*
X162251879Y-97204072D01*
X162184505Y-97253022D01*
X162032025Y-97405502D01*
X162032025Y-97405503D01*
X161905271Y-97579963D01*
X161807372Y-97772098D01*
X161740733Y-97977190D01*
X161729519Y-98048000D01*
X157547946Y-98048000D01*
X157548816Y-98046698D01*
X157569214Y-98016172D01*
X157593461Y-97979883D01*
X157593461Y-97979882D01*
X157593465Y-97979877D01*
X157642501Y-97861494D01*
X157656728Y-97789974D01*
X157667500Y-97735821D01*
X157667500Y-97607678D01*
X157642502Y-97482011D01*
X157642501Y-97482010D01*
X157642501Y-97482006D01*
X157593465Y-97363623D01*
X157593464Y-97363622D01*
X157593461Y-97363616D01*
X157522276Y-97257081D01*
X157522273Y-97257077D01*
X157431672Y-97166476D01*
X157431668Y-97166473D01*
X157325133Y-97095288D01*
X157325124Y-97095283D01*
X157206744Y-97046249D01*
X157206738Y-97046247D01*
X157081071Y-97021250D01*
X157081069Y-97021250D01*
X156952931Y-97021250D01*
X156952929Y-97021250D01*
X156827261Y-97046247D01*
X156827255Y-97046249D01*
X156708875Y-97095283D01*
X156708866Y-97095288D01*
X156602331Y-97166473D01*
X156602327Y-97166476D01*
X156511726Y-97257077D01*
X156511723Y-97257081D01*
X156440538Y-97363616D01*
X156440533Y-97363625D01*
X156391499Y-97482005D01*
X156391497Y-97482011D01*
X156366500Y-97607678D01*
X156366500Y-97607681D01*
X156366500Y-97735819D01*
X156366500Y-97735821D01*
X156366499Y-97735821D01*
X147417500Y-97735821D01*
X147417500Y-97607678D01*
X147392502Y-97482011D01*
X147392501Y-97482010D01*
X147392501Y-97482006D01*
X147343465Y-97363623D01*
X147343464Y-97363622D01*
X147343461Y-97363616D01*
X147272276Y-97257081D01*
X147272273Y-97257077D01*
X147181672Y-97166476D01*
X147181668Y-97166473D01*
X147075133Y-97095288D01*
X147075124Y-97095283D01*
X146956744Y-97046249D01*
X146956738Y-97046247D01*
X146831071Y-97021250D01*
X146831069Y-97021250D01*
X146702931Y-97021250D01*
X146702929Y-97021250D01*
X146577261Y-97046247D01*
X146577255Y-97046249D01*
X146458875Y-97095283D01*
X146458866Y-97095288D01*
X146352331Y-97166473D01*
X146352327Y-97166476D01*
X146261726Y-97257077D01*
X146261723Y-97257081D01*
X146190538Y-97363616D01*
X146190533Y-97363625D01*
X146141499Y-97482005D01*
X146141497Y-97482011D01*
X146116500Y-97607678D01*
X146116500Y-97607681D01*
X146116500Y-97735819D01*
X146116500Y-97735821D01*
X146116499Y-97735821D01*
X145001182Y-97735821D01*
X144933690Y-97642927D01*
X144800073Y-97509310D01*
X144647199Y-97398240D01*
X144478836Y-97312454D01*
X144299118Y-97254059D01*
X144112486Y-97224500D01*
X144112481Y-97224500D01*
X143923519Y-97224500D01*
X143923514Y-97224500D01*
X143736881Y-97254059D01*
X143557163Y-97312454D01*
X143388800Y-97398240D01*
X143301579Y-97461610D01*
X143235927Y-97509310D01*
X143235925Y-97509312D01*
X143235924Y-97509312D01*
X143102312Y-97642924D01*
X143102312Y-97642925D01*
X143102310Y-97642927D01*
X143058664Y-97703000D01*
X142991240Y-97795800D01*
X142905454Y-97964163D01*
X142847059Y-98143881D01*
X142817500Y-98330513D01*
X137598500Y-98330513D01*
X137568940Y-98143881D01*
X137527226Y-98015500D01*
X137510547Y-97964168D01*
X137510545Y-97964165D01*
X137510545Y-97964163D01*
X137438049Y-97821882D01*
X137424760Y-97795801D01*
X137313690Y-97642927D01*
X137180073Y-97509310D01*
X137027199Y-97398240D01*
X136858836Y-97312454D01*
X136679118Y-97254059D01*
X136492486Y-97224500D01*
X136492481Y-97224500D01*
X136303519Y-97224500D01*
X136303514Y-97224500D01*
X136116881Y-97254059D01*
X135937163Y-97312454D01*
X135768800Y-97398240D01*
X135681579Y-97461610D01*
X135615927Y-97509310D01*
X135615925Y-97509312D01*
X135615924Y-97509312D01*
X135482312Y-97642924D01*
X135482312Y-97642925D01*
X135482310Y-97642927D01*
X135438664Y-97703000D01*
X135371240Y-97795800D01*
X135285454Y-97964163D01*
X135227059Y-98143881D01*
X135197500Y-98330513D01*
X134512232Y-98330513D01*
X134461859Y-98231650D01*
X134429474Y-98187077D01*
X134429474Y-98187076D01*
X133750000Y-98866551D01*
X133750000Y-98860339D01*
X133722741Y-98758606D01*
X133670080Y-98667394D01*
X133595606Y-98592920D01*
X133504394Y-98540259D01*
X133402661Y-98513000D01*
X133396446Y-98513000D01*
X134075922Y-97833524D01*
X134075921Y-97833523D01*
X134031359Y-97801147D01*
X134031350Y-97801141D01*
X133867488Y-97717649D01*
X133816692Y-97669674D01*
X133799897Y-97601853D01*
X133822434Y-97535718D01*
X133867489Y-97496679D01*
X133979197Y-97439761D01*
X133979196Y-97439761D01*
X133979199Y-97439760D01*
X134132073Y-97328690D01*
X134265690Y-97195073D01*
X134376760Y-97042199D01*
X134418028Y-96961205D01*
X134466002Y-96910409D01*
X134528513Y-96893500D01*
X138749890Y-96893500D01*
X138749892Y-96893500D01*
X138877186Y-96859392D01*
X138991314Y-96793500D01*
X140911814Y-94873000D01*
X142741391Y-94873000D01*
X143702314Y-94873000D01*
X143697920Y-94877394D01*
X143645259Y-94968606D01*
X143618000Y-95070339D01*
X143618000Y-95175661D01*
X143645259Y-95277394D01*
X143697920Y-95368606D01*
X143702314Y-95373000D01*
X142741391Y-95373000D01*
X142750009Y-95427413D01*
X142813244Y-95622029D01*
X142906140Y-95804349D01*
X143026417Y-95969894D01*
X143026417Y-95969895D01*
X143171104Y-96114582D01*
X143336650Y-96234859D01*
X143518968Y-96327754D01*
X143713578Y-96390988D01*
X143768000Y-96399607D01*
X143768000Y-95438686D01*
X143772394Y-95443080D01*
X143863606Y-95495741D01*
X143965339Y-95523000D01*
X144070661Y-95523000D01*
X144172394Y-95495741D01*
X144263606Y-95443080D01*
X144268000Y-95438686D01*
X144268000Y-96399606D01*
X144322421Y-96390988D01*
X144517031Y-96327754D01*
X144699349Y-96234859D01*
X144864894Y-96114582D01*
X144864895Y-96114582D01*
X145009582Y-95969895D01*
X145009582Y-95969894D01*
X145129859Y-95804349D01*
X145222755Y-95622029D01*
X145285990Y-95427413D01*
X145294609Y-95373000D01*
X144333686Y-95373000D01*
X144338080Y-95368606D01*
X144390741Y-95277394D01*
X144418000Y-95175661D01*
X144418000Y-95070339D01*
X144390741Y-94968606D01*
X144338080Y-94877394D01*
X144333686Y-94873000D01*
X145294609Y-94873000D01*
X145285990Y-94818586D01*
X145222755Y-94623970D01*
X145129859Y-94441650D01*
X145009582Y-94276105D01*
X145009582Y-94276104D01*
X144864895Y-94131417D01*
X144699349Y-94011140D01*
X144517029Y-93918244D01*
X144322413Y-93855009D01*
X144268000Y-93846390D01*
X144268000Y-94807314D01*
X144263606Y-94802920D01*
X144172394Y-94750259D01*
X144070661Y-94723000D01*
X143965339Y-94723000D01*
X143863606Y-94750259D01*
X143772394Y-94802920D01*
X143768000Y-94807314D01*
X143768000Y-93846390D01*
X143713586Y-93855009D01*
X143518970Y-93918244D01*
X143336650Y-94011140D01*
X143171105Y-94131417D01*
X143171104Y-94131417D01*
X143026417Y-94276104D01*
X143026417Y-94276105D01*
X142906140Y-94441650D01*
X142813244Y-94623970D01*
X142750009Y-94818586D01*
X142741391Y-94873000D01*
X140911814Y-94873000D01*
X141878500Y-93906314D01*
X141944392Y-93792186D01*
X141978500Y-93664892D01*
X141978500Y-93533107D01*
X141978500Y-90711518D01*
X141998185Y-90644479D01*
X142001296Y-90639868D01*
X142007376Y-90631279D01*
X142022114Y-90616542D01*
X142044183Y-90583513D01*
X146881500Y-90583513D01*
X146881500Y-90772486D01*
X146911059Y-90959118D01*
X146969454Y-91138836D01*
X147007459Y-91213424D01*
X147055240Y-91307199D01*
X147166310Y-91460073D01*
X147299927Y-91593690D01*
X147452801Y-91704760D01*
X147532347Y-91745290D01*
X147621163Y-91790545D01*
X147621165Y-91790545D01*
X147621168Y-91790547D01*
X147689474Y-91812741D01*
X147800881Y-91848940D01*
X147987514Y-91878500D01*
X147987519Y-91878500D01*
X148176486Y-91878500D01*
X148363118Y-91848940D01*
X148390632Y-91840000D01*
X148542832Y-91790547D01*
X148711199Y-91704760D01*
X148864073Y-91593690D01*
X148997690Y-91460073D01*
X149108760Y-91307199D01*
X149194547Y-91138832D01*
X149252940Y-90959118D01*
X149276431Y-90810801D01*
X149282500Y-90772486D01*
X149282500Y-90583513D01*
X154501500Y-90583513D01*
X154501500Y-90772486D01*
X154531059Y-90959118D01*
X154589454Y-91138836D01*
X154627459Y-91213424D01*
X154675240Y-91307199D01*
X154786310Y-91460073D01*
X154919927Y-91593690D01*
X155072801Y-91704760D01*
X155152347Y-91745290D01*
X155241163Y-91790545D01*
X155241165Y-91790545D01*
X155241168Y-91790547D01*
X155309474Y-91812741D01*
X155420881Y-91848940D01*
X155607514Y-91878500D01*
X155607519Y-91878500D01*
X155796486Y-91878500D01*
X155983118Y-91848940D01*
X156010632Y-91840000D01*
X156162832Y-91790547D01*
X156331199Y-91704760D01*
X156484073Y-91593690D01*
X156617690Y-91460073D01*
X156728760Y-91307199D01*
X156814547Y-91138832D01*
X156862719Y-90990575D01*
X161092500Y-90990575D01*
X161092500Y-91213424D01*
X161121585Y-91434354D01*
X161121588Y-91434367D01*
X161179263Y-91649618D01*
X161264545Y-91855502D01*
X161264554Y-91855520D01*
X161375964Y-92048491D01*
X161375973Y-92048504D01*
X161426540Y-92114403D01*
X161426543Y-92114403D01*
X162227887Y-91313059D01*
X162233389Y-91333591D01*
X162312381Y-91470408D01*
X162424092Y-91582119D01*
X162560909Y-91661111D01*
X162581440Y-91666612D01*
X161780095Y-92467955D01*
X161780095Y-92467956D01*
X161846007Y-92518533D01*
X162038985Y-92629949D01*
X162038997Y-92629954D01*
X162244881Y-92715236D01*
X162460132Y-92772911D01*
X162460145Y-92772914D01*
X162681075Y-92802000D01*
X162903925Y-92802000D01*
X163124854Y-92772914D01*
X163124867Y-92772911D01*
X163340118Y-92715236D01*
X163546002Y-92629954D01*
X163546014Y-92629949D01*
X163738998Y-92518530D01*
X163804903Y-92467957D01*
X163804904Y-92467956D01*
X163003559Y-91666612D01*
X163024091Y-91661111D01*
X163160908Y-91582119D01*
X163272619Y-91470408D01*
X163351611Y-91333591D01*
X163357112Y-91313059D01*
X164158456Y-92114404D01*
X164158457Y-92114403D01*
X164209030Y-92048498D01*
X164320449Y-91855514D01*
X164320454Y-91855502D01*
X164405736Y-91649618D01*
X164463411Y-91434367D01*
X164463414Y-91434354D01*
X164492500Y-91213424D01*
X164492500Y-90990575D01*
X164463414Y-90769645D01*
X164463411Y-90769632D01*
X164405736Y-90554381D01*
X164320454Y-90348497D01*
X164320449Y-90348485D01*
X164209033Y-90155507D01*
X164158456Y-90089595D01*
X164158455Y-90089595D01*
X163357112Y-90890939D01*
X163351611Y-90870409D01*
X163272619Y-90733592D01*
X163160908Y-90621881D01*
X163024091Y-90542889D01*
X163003558Y-90537387D01*
X163804903Y-89736043D01*
X163804903Y-89736040D01*
X163739004Y-89685473D01*
X163738991Y-89685464D01*
X163546020Y-89574054D01*
X163546002Y-89574045D01*
X163340118Y-89488763D01*
X163124867Y-89431088D01*
X163124854Y-89431085D01*
X163071915Y-89424116D01*
X163008018Y-89395849D01*
X162969547Y-89337525D01*
X162968716Y-89267660D01*
X163005788Y-89208437D01*
X163068701Y-89178704D01*
X163167285Y-89163090D01*
X163406879Y-89085241D01*
X163631345Y-88970870D01*
X163835156Y-88822793D01*
X164013293Y-88644656D01*
X164161370Y-88440845D01*
X164275741Y-88216379D01*
X164353590Y-87976785D01*
X164393000Y-87727962D01*
X164393000Y-87476038D01*
X164353590Y-87227215D01*
X164275741Y-86987621D01*
X164275739Y-86987618D01*
X164275739Y-86987616D01*
X164204562Y-86847924D01*
X164161370Y-86763155D01*
X164050152Y-86610076D01*
X164013298Y-86559350D01*
X164013294Y-86559345D01*
X163835154Y-86381205D01*
X163835149Y-86381201D01*
X163631348Y-86233132D01*
X163631347Y-86233131D01*
X163631345Y-86233130D01*
X163561247Y-86197413D01*
X163406883Y-86118760D01*
X163167285Y-86040910D01*
X162918462Y-86001500D01*
X162666538Y-86001500D01*
X162542126Y-86021205D01*
X162417714Y-86040910D01*
X162178116Y-86118760D01*
X161953651Y-86233132D01*
X161749850Y-86381201D01*
X161749845Y-86381205D01*
X161571705Y-86559345D01*
X161571701Y-86559350D01*
X161423632Y-86763151D01*
X161309260Y-86987616D01*
X161231410Y-87227214D01*
X161192000Y-87476038D01*
X161192000Y-87727961D01*
X161231410Y-87976785D01*
X161309260Y-88216383D01*
X161387913Y-88370747D01*
X161408970Y-88412074D01*
X161423632Y-88440848D01*
X161571701Y-88644649D01*
X161571705Y-88644654D01*
X161749845Y-88822794D01*
X161749850Y-88822798D01*
X161853341Y-88897988D01*
X161953655Y-88970870D01*
X162096684Y-89043747D01*
X162178116Y-89085239D01*
X162178118Y-89085239D01*
X162178121Y-89085241D01*
X162417715Y-89163090D01*
X162513683Y-89178290D01*
X162516297Y-89178704D01*
X162579432Y-89208633D01*
X162616363Y-89267945D01*
X162615365Y-89337807D01*
X162576755Y-89396040D01*
X162513085Y-89424116D01*
X162460143Y-89431086D01*
X162460132Y-89431088D01*
X162244881Y-89488763D01*
X162038997Y-89574045D01*
X162038979Y-89574054D01*
X161846011Y-89685462D01*
X161780095Y-89736042D01*
X162581441Y-90537387D01*
X162560909Y-90542889D01*
X162424092Y-90621881D01*
X162312381Y-90733592D01*
X162233389Y-90870409D01*
X162227887Y-90890940D01*
X161426542Y-90089595D01*
X161375962Y-90155511D01*
X161264554Y-90348479D01*
X161264545Y-90348497D01*
X161179263Y-90554381D01*
X161121588Y-90769632D01*
X161121585Y-90769645D01*
X161092500Y-90990575D01*
X156862719Y-90990575D01*
X156872940Y-90959118D01*
X156896431Y-90810801D01*
X156902500Y-90772486D01*
X156902500Y-90583513D01*
X156872940Y-90396881D01*
X156831408Y-90269060D01*
X156814547Y-90217168D01*
X156814545Y-90217165D01*
X156814545Y-90217163D01*
X156755359Y-90101004D01*
X156728760Y-90048801D01*
X156617690Y-89895927D01*
X156484073Y-89762310D01*
X156331199Y-89651240D01*
X156281437Y-89625885D01*
X156162836Y-89565454D01*
X155983118Y-89507059D01*
X155796486Y-89477500D01*
X155796481Y-89477500D01*
X155607519Y-89477500D01*
X155607514Y-89477500D01*
X155420881Y-89507059D01*
X155241163Y-89565454D01*
X155072800Y-89651240D01*
X154985579Y-89714610D01*
X154919927Y-89762310D01*
X154919925Y-89762312D01*
X154919924Y-89762312D01*
X154786312Y-89895924D01*
X154786312Y-89895925D01*
X154786310Y-89895927D01*
X154751735Y-89943515D01*
X154675240Y-90048800D01*
X154589454Y-90217163D01*
X154531059Y-90396881D01*
X154501500Y-90583513D01*
X149282500Y-90583513D01*
X149252940Y-90396881D01*
X149211408Y-90269060D01*
X149194547Y-90217168D01*
X149194545Y-90217165D01*
X149194545Y-90217163D01*
X149135359Y-90101004D01*
X149108760Y-90048801D01*
X148997690Y-89895927D01*
X148864073Y-89762310D01*
X148711199Y-89651240D01*
X148661437Y-89625885D01*
X148542836Y-89565454D01*
X148363118Y-89507059D01*
X148176486Y-89477500D01*
X148176481Y-89477500D01*
X147987519Y-89477500D01*
X147987514Y-89477500D01*
X147800881Y-89507059D01*
X147621163Y-89565454D01*
X147452800Y-89651240D01*
X147365579Y-89714610D01*
X147299927Y-89762310D01*
X147299925Y-89762312D01*
X147299924Y-89762312D01*
X147166312Y-89895924D01*
X147166312Y-89895925D01*
X147166310Y-89895927D01*
X147131735Y-89943515D01*
X147055240Y-90048800D01*
X146969454Y-90217163D01*
X146911059Y-90396881D01*
X146881500Y-90583513D01*
X142044183Y-90583513D01*
X142098775Y-90501811D01*
X142151580Y-90374328D01*
X142167915Y-90292208D01*
X142178500Y-90238995D01*
X142178500Y-90101004D01*
X142151581Y-89965677D01*
X142151580Y-89965676D01*
X142151580Y-89965672D01*
X142122690Y-89895924D01*
X142098778Y-89838195D01*
X142098771Y-89838182D01*
X142022114Y-89723458D01*
X142022111Y-89723454D01*
X141924545Y-89625888D01*
X141924541Y-89625885D01*
X141809817Y-89549228D01*
X141809804Y-89549221D01*
X141682332Y-89496421D01*
X141682322Y-89496418D01*
X141546995Y-89469500D01*
X141546993Y-89469500D01*
X141409007Y-89469500D01*
X141409005Y-89469500D01*
X141273677Y-89496418D01*
X141273667Y-89496421D01*
X141146195Y-89549221D01*
X141146182Y-89549228D01*
X141031458Y-89625885D01*
X141031454Y-89625888D01*
X140933888Y-89723454D01*
X140933885Y-89723458D01*
X140857228Y-89838182D01*
X140857221Y-89838195D01*
X140804421Y-89965667D01*
X140804418Y-89965677D01*
X140777500Y-90101004D01*
X140777500Y-90101007D01*
X140777500Y-90238993D01*
X140777500Y-90238995D01*
X140777499Y-90238995D01*
X140804418Y-90374322D01*
X140804421Y-90374332D01*
X140857221Y-90501804D01*
X140857228Y-90501817D01*
X140933885Y-90616541D01*
X140941177Y-90623833D01*
X140974665Y-90685155D01*
X140977500Y-90711518D01*
X140977500Y-93340324D01*
X140957815Y-93407363D01*
X140941181Y-93428005D01*
X138513005Y-95856181D01*
X138451682Y-95889666D01*
X138425324Y-95892500D01*
X137555623Y-95892500D01*
X137488584Y-95872815D01*
X137442829Y-95820011D01*
X137432885Y-95750853D01*
X137445138Y-95712205D01*
X137510545Y-95583836D01*
X137510545Y-95583835D01*
X137510547Y-95583832D01*
X137568940Y-95404118D01*
X137573869Y-95373000D01*
X137598500Y-95217486D01*
X137598500Y-95028513D01*
X137568940Y-94841881D01*
X137534580Y-94736135D01*
X137510547Y-94662168D01*
X137510545Y-94662165D01*
X137510545Y-94662163D01*
X137424759Y-94493800D01*
X137422290Y-94490402D01*
X137313690Y-94340927D01*
X137180073Y-94207310D01*
X137027199Y-94096240D01*
X136858836Y-94010454D01*
X136679118Y-93952059D01*
X136492486Y-93922500D01*
X136492481Y-93922500D01*
X136303519Y-93922500D01*
X136303514Y-93922500D01*
X136116881Y-93952059D01*
X135937163Y-94010454D01*
X135768800Y-94096240D01*
X135720384Y-94131417D01*
X135615927Y-94207310D01*
X135615925Y-94207312D01*
X135615924Y-94207312D01*
X135482312Y-94340924D01*
X135482312Y-94340925D01*
X135482310Y-94340927D01*
X135434610Y-94406579D01*
X135371240Y-94493800D01*
X135285454Y-94662163D01*
X135227059Y-94841881D01*
X135197500Y-95028513D01*
X135197500Y-95217486D01*
X135227059Y-95404118D01*
X135285454Y-95583836D01*
X135350862Y-95712205D01*
X135363758Y-95780874D01*
X135337482Y-95845615D01*
X135280375Y-95885872D01*
X135240377Y-95892500D01*
X134508132Y-95892500D01*
X134441093Y-95872815D01*
X134397647Y-95824794D01*
X134376761Y-95783802D01*
X134324742Y-95712205D01*
X134265690Y-95630927D01*
X134132073Y-95497310D01*
X133979199Y-95386240D01*
X133953214Y-95373000D01*
X133810836Y-95300454D01*
X133631118Y-95242059D01*
X133444486Y-95212500D01*
X133444481Y-95212500D01*
X133255519Y-95212500D01*
X133255514Y-95212500D01*
X133068881Y-95242059D01*
X132889163Y-95300454D01*
X132720800Y-95386240D01*
X132658382Y-95431590D01*
X132567927Y-95497310D01*
X132567925Y-95497312D01*
X132567924Y-95497312D01*
X132434312Y-95630924D01*
X132434312Y-95630925D01*
X132434310Y-95630927D01*
X132400941Y-95676855D01*
X132323238Y-95783802D01*
X132302353Y-95824794D01*
X132254379Y-95875590D01*
X132191868Y-95892500D01*
X131188500Y-95892500D01*
X131121461Y-95872815D01*
X131075706Y-95820011D01*
X131064500Y-95768500D01*
X131064500Y-95609313D01*
X131064499Y-95609298D01*
X131062495Y-95583836D01*
X131061598Y-95572431D01*
X131015744Y-95414602D01*
X130932081Y-95273135D01*
X130932079Y-95273133D01*
X130932076Y-95273129D01*
X130815870Y-95156923D01*
X130815862Y-95156917D01*
X130674396Y-95073255D01*
X130674393Y-95073254D01*
X130516573Y-95027402D01*
X130516567Y-95027401D01*
X130479701Y-95024500D01*
X130479694Y-95024500D01*
X129108306Y-95024500D01*
X129108298Y-95024500D01*
X129071432Y-95027401D01*
X129071426Y-95027402D01*
X128913606Y-95073254D01*
X128913603Y-95073255D01*
X128772137Y-95156917D01*
X128772129Y-95156923D01*
X128655923Y-95273129D01*
X128655917Y-95273137D01*
X128572255Y-95414603D01*
X128572252Y-95414609D01*
X128567319Y-95431590D01*
X128529711Y-95490475D01*
X128466238Y-95519679D01*
X128397052Y-95509932D01*
X128347926Y-95469878D01*
X128298974Y-95402503D01*
X128298974Y-95402502D01*
X128146497Y-95250025D01*
X127972036Y-95123271D01*
X127779899Y-95025372D01*
X127574805Y-94958733D01*
X127504000Y-94947518D01*
X127504000Y-95977290D01*
X127483661Y-95965548D01*
X127332333Y-95925000D01*
X127175667Y-95925000D01*
X127024339Y-95965548D01*
X127004000Y-95977290D01*
X127004000Y-94947518D01*
X127003999Y-94947518D01*
X126933194Y-94958733D01*
X126728100Y-95025372D01*
X126535963Y-95123271D01*
X126361503Y-95250025D01*
X126361502Y-95250025D01*
X126209025Y-95402502D01*
X126209025Y-95402503D01*
X126082271Y-95576963D01*
X125984372Y-95769098D01*
X125917734Y-95974190D01*
X125884000Y-96187179D01*
X124706500Y-96187179D01*
X124706500Y-91337682D01*
X128534000Y-91337682D01*
X128534000Y-91542317D01*
X128566009Y-91744417D01*
X128629244Y-91939031D01*
X128722141Y-92121350D01*
X128722147Y-92121359D01*
X128754523Y-92165921D01*
X128754524Y-92165922D01*
X129434000Y-91486446D01*
X129434000Y-91492661D01*
X129461259Y-91594394D01*
X129513920Y-91685606D01*
X129588394Y-91760080D01*
X129679606Y-91812741D01*
X129781339Y-91840000D01*
X129787553Y-91840000D01*
X129108076Y-92519474D01*
X129152650Y-92551859D01*
X129334968Y-92644755D01*
X129529582Y-92707990D01*
X129731683Y-92740000D01*
X129936317Y-92740000D01*
X130138417Y-92707990D01*
X130333031Y-92644755D01*
X130515349Y-92551859D01*
X130559921Y-92519474D01*
X129880447Y-91840000D01*
X129886661Y-91840000D01*
X129988394Y-91812741D01*
X130079606Y-91760080D01*
X130154080Y-91685606D01*
X130206741Y-91594394D01*
X130234000Y-91492661D01*
X130234000Y-91486446D01*
X130913474Y-92165921D01*
X130945861Y-92121347D01*
X130945861Y-92121346D01*
X131029350Y-91957489D01*
X131077324Y-91906693D01*
X131145145Y-91889897D01*
X131211280Y-91912434D01*
X131250320Y-91957488D01*
X131250321Y-91957489D01*
X131307240Y-92069199D01*
X131418310Y-92222073D01*
X131551927Y-92355690D01*
X131704801Y-92466760D01*
X131784347Y-92507290D01*
X131873163Y-92552545D01*
X131873165Y-92552545D01*
X131873168Y-92552547D01*
X131969497Y-92583846D01*
X132052881Y-92610940D01*
X132239514Y-92640500D01*
X132239519Y-92640500D01*
X132428486Y-92640500D01*
X132615118Y-92610940D01*
X132794832Y-92552547D01*
X132963199Y-92466760D01*
X133116073Y-92355690D01*
X133249690Y-92222073D01*
X133360760Y-92069199D01*
X133446547Y-91900832D01*
X133504940Y-91721118D01*
X133507968Y-91702000D01*
X133534500Y-91534486D01*
X133534500Y-91345513D01*
X133504940Y-91158881D01*
X133446545Y-90979163D01*
X133360759Y-90810800D01*
X133332922Y-90772486D01*
X133249690Y-90657927D01*
X133116073Y-90524310D01*
X132963199Y-90413240D01*
X132886838Y-90374332D01*
X132794836Y-90327454D01*
X132615118Y-90269059D01*
X132428486Y-90239500D01*
X132428481Y-90239500D01*
X132239519Y-90239500D01*
X132239514Y-90239500D01*
X132052882Y-90269059D01*
X131987773Y-90290214D01*
X131917932Y-90292208D01*
X131861776Y-90259963D01*
X131227701Y-89625888D01*
X130584819Y-88983005D01*
X130551334Y-88921682D01*
X130548500Y-88895324D01*
X130548500Y-88170999D01*
X130568185Y-88103960D01*
X130620989Y-88058205D01*
X130690147Y-88048261D01*
X130714550Y-88059405D01*
X130746524Y-88061922D01*
X131426000Y-87382446D01*
X131426000Y-87388661D01*
X131453259Y-87490394D01*
X131505920Y-87581606D01*
X131580394Y-87656080D01*
X131671606Y-87708741D01*
X131773339Y-87736000D01*
X131779553Y-87736000D01*
X131100076Y-88415474D01*
X131144650Y-88447859D01*
X131326968Y-88540755D01*
X131521582Y-88603990D01*
X131723683Y-88636000D01*
X131928317Y-88636000D01*
X132130417Y-88603990D01*
X132325031Y-88540755D01*
X132507349Y-88447859D01*
X132551921Y-88415474D01*
X131872447Y-87736000D01*
X131878661Y-87736000D01*
X131980394Y-87708741D01*
X132071606Y-87656080D01*
X132146080Y-87581606D01*
X132198741Y-87490394D01*
X132226000Y-87388661D01*
X132226000Y-87382447D01*
X132905474Y-88061921D01*
X132937859Y-88017349D01*
X133030755Y-87835031D01*
X133093990Y-87640417D01*
X133110606Y-87535513D01*
X146881500Y-87535513D01*
X146881500Y-87724486D01*
X146911059Y-87911118D01*
X146969454Y-88090836D01*
X147033422Y-88216379D01*
X147055240Y-88259199D01*
X147166310Y-88412073D01*
X147299927Y-88545690D01*
X147452801Y-88656760D01*
X147532347Y-88697290D01*
X147621163Y-88742545D01*
X147621165Y-88742545D01*
X147621168Y-88742547D01*
X147717497Y-88773846D01*
X147800881Y-88800940D01*
X147987514Y-88830500D01*
X147987519Y-88830500D01*
X148176486Y-88830500D01*
X148363118Y-88800940D01*
X148542832Y-88742547D01*
X148711199Y-88656760D01*
X148864073Y-88545690D01*
X148997690Y-88412073D01*
X149108760Y-88259199D01*
X149194547Y-88090832D01*
X149252940Y-87911118D01*
X149281949Y-87727961D01*
X149282500Y-87724485D01*
X149282500Y-87535514D01*
X149266811Y-87436462D01*
X149266811Y-87436460D01*
X149257869Y-87380000D01*
X154425391Y-87380000D01*
X155386314Y-87380000D01*
X155381920Y-87384394D01*
X155329259Y-87475606D01*
X155302000Y-87577339D01*
X155302000Y-87682661D01*
X155329259Y-87784394D01*
X155381920Y-87875606D01*
X155386314Y-87880000D01*
X154425391Y-87880000D01*
X154434009Y-87934413D01*
X154497244Y-88129029D01*
X154590140Y-88311349D01*
X154710417Y-88476894D01*
X154710417Y-88476895D01*
X154855104Y-88621582D01*
X155020650Y-88741859D01*
X155202968Y-88834754D01*
X155397578Y-88897988D01*
X155452000Y-88906607D01*
X155452000Y-87945686D01*
X155456394Y-87950080D01*
X155547606Y-88002741D01*
X155649339Y-88030000D01*
X155754661Y-88030000D01*
X155856394Y-88002741D01*
X155947606Y-87950080D01*
X155952000Y-87945686D01*
X155952000Y-88906606D01*
X156006421Y-88897988D01*
X156201031Y-88834754D01*
X156383349Y-88741859D01*
X156548894Y-88621582D01*
X156548895Y-88621582D01*
X156693582Y-88476895D01*
X156693582Y-88476894D01*
X156813859Y-88311349D01*
X156906755Y-88129029D01*
X156969990Y-87934413D01*
X156978609Y-87880000D01*
X156017686Y-87880000D01*
X156022080Y-87875606D01*
X156074741Y-87784394D01*
X156102000Y-87682661D01*
X156102000Y-87577339D01*
X156074741Y-87475606D01*
X156022080Y-87384394D01*
X156017686Y-87380000D01*
X156978609Y-87380000D01*
X156978609Y-87379999D01*
X156969990Y-87325586D01*
X156906755Y-87130970D01*
X156813859Y-86948650D01*
X156693582Y-86783105D01*
X156693582Y-86783104D01*
X156548895Y-86638417D01*
X156383349Y-86518140D01*
X156201029Y-86425244D01*
X156006413Y-86362009D01*
X155952000Y-86353390D01*
X155952000Y-87314314D01*
X155947606Y-87309920D01*
X155856394Y-87257259D01*
X155754661Y-87230000D01*
X155649339Y-87230000D01*
X155547606Y-87257259D01*
X155456394Y-87309920D01*
X155452000Y-87314314D01*
X155452000Y-86353390D01*
X155397586Y-86362009D01*
X155202970Y-86425244D01*
X155020650Y-86518140D01*
X154855105Y-86638417D01*
X154855104Y-86638417D01*
X154710417Y-86783104D01*
X154710417Y-86783105D01*
X154590140Y-86948650D01*
X154497244Y-87130970D01*
X154434009Y-87325586D01*
X154425391Y-87380000D01*
X149257869Y-87380000D01*
X149252940Y-87348882D01*
X149252940Y-87348881D01*
X149194545Y-87169163D01*
X149149290Y-87080347D01*
X149108760Y-87000801D01*
X148997690Y-86847927D01*
X148864073Y-86714310D01*
X148711199Y-86603240D01*
X148542836Y-86517454D01*
X148363118Y-86459059D01*
X148176486Y-86429500D01*
X148176481Y-86429500D01*
X147987519Y-86429500D01*
X147987514Y-86429500D01*
X147800881Y-86459059D01*
X147621163Y-86517454D01*
X147452800Y-86603240D01*
X147365579Y-86666610D01*
X147299927Y-86714310D01*
X147299925Y-86714312D01*
X147299924Y-86714312D01*
X147166312Y-86847924D01*
X147166312Y-86847925D01*
X147166310Y-86847927D01*
X147118610Y-86913579D01*
X147055240Y-87000800D01*
X146969454Y-87169163D01*
X146911059Y-87348881D01*
X146881500Y-87535513D01*
X133110606Y-87535513D01*
X133114449Y-87511249D01*
X133126000Y-87438317D01*
X133126000Y-87233682D01*
X133093990Y-87031582D01*
X133030755Y-86836968D01*
X132937859Y-86654650D01*
X132905474Y-86610077D01*
X132905474Y-86610076D01*
X132226000Y-87289551D01*
X132226000Y-87283339D01*
X132198741Y-87181606D01*
X132146080Y-87090394D01*
X132071606Y-87015920D01*
X131980394Y-86963259D01*
X131878661Y-86936000D01*
X131872446Y-86936000D01*
X132551922Y-86256524D01*
X132551921Y-86256523D01*
X132507359Y-86224147D01*
X132507350Y-86224141D01*
X132343488Y-86140649D01*
X132292692Y-86092674D01*
X132275897Y-86024853D01*
X132298434Y-85958718D01*
X132343489Y-85919679D01*
X132455197Y-85862761D01*
X132455196Y-85862761D01*
X132455199Y-85862760D01*
X132608073Y-85751690D01*
X132732944Y-85626819D01*
X132794267Y-85593334D01*
X132820625Y-85590500D01*
X133421825Y-85590500D01*
X133488864Y-85610185D01*
X133522140Y-85641611D01*
X133597310Y-85745073D01*
X133730927Y-85878690D01*
X133883801Y-85989760D01*
X133917519Y-86006940D01*
X134052163Y-86075545D01*
X134052165Y-86075545D01*
X134052168Y-86075547D01*
X134148497Y-86106846D01*
X134231881Y-86133940D01*
X134418514Y-86163500D01*
X134418519Y-86163500D01*
X134607486Y-86163500D01*
X134794118Y-86133940D01*
X134973832Y-86075547D01*
X135142199Y-85989760D01*
X135295073Y-85878690D01*
X135428690Y-85745073D01*
X135539760Y-85592199D01*
X135596679Y-85480489D01*
X135644653Y-85429692D01*
X135712474Y-85412897D01*
X135778609Y-85435434D01*
X135817649Y-85480488D01*
X135901141Y-85644350D01*
X135901147Y-85644359D01*
X135933523Y-85688921D01*
X135933524Y-85688922D01*
X136613000Y-85009446D01*
X136613000Y-85015661D01*
X136640259Y-85117394D01*
X136692920Y-85208606D01*
X136767394Y-85283080D01*
X136858606Y-85335741D01*
X136960339Y-85363000D01*
X136966553Y-85363000D01*
X136287076Y-86042474D01*
X136331650Y-86074859D01*
X136513968Y-86167755D01*
X136708582Y-86230990D01*
X136910683Y-86263000D01*
X137115317Y-86263000D01*
X137317417Y-86230990D01*
X137512031Y-86167755D01*
X137694349Y-86074859D01*
X137738921Y-86042474D01*
X137059447Y-85363000D01*
X137065661Y-85363000D01*
X137167394Y-85335741D01*
X137258606Y-85283080D01*
X137333080Y-85208606D01*
X137385741Y-85117394D01*
X137413000Y-85015661D01*
X137413000Y-85009447D01*
X138092474Y-85688921D01*
X138124859Y-85644349D01*
X138217755Y-85462031D01*
X138280990Y-85267417D01*
X138313000Y-85065317D01*
X138313000Y-84860682D01*
X138280990Y-84658582D01*
X138217755Y-84463968D01*
X138124859Y-84281650D01*
X138092474Y-84237077D01*
X138092474Y-84237076D01*
X137413000Y-84916551D01*
X137413000Y-84910339D01*
X137385741Y-84808606D01*
X137333080Y-84717394D01*
X137258606Y-84642920D01*
X137167394Y-84590259D01*
X137065661Y-84563000D01*
X137059446Y-84563000D01*
X137646408Y-83976038D01*
X161192000Y-83976038D01*
X161192000Y-84227962D01*
X161208763Y-84333800D01*
X161231410Y-84476785D01*
X161309260Y-84716383D01*
X161322065Y-84741513D01*
X161418349Y-84930481D01*
X161423632Y-84940848D01*
X161571701Y-85144649D01*
X161571705Y-85144654D01*
X161749845Y-85322794D01*
X161749850Y-85322798D01*
X161896978Y-85429692D01*
X161953655Y-85470870D01*
X162096684Y-85543747D01*
X162178116Y-85585239D01*
X162178118Y-85585239D01*
X162178121Y-85585241D01*
X162417715Y-85663090D01*
X162666538Y-85702500D01*
X162666539Y-85702500D01*
X162918461Y-85702500D01*
X162918462Y-85702500D01*
X163167285Y-85663090D01*
X163406879Y-85585241D01*
X163631345Y-85470870D01*
X163835156Y-85322793D01*
X164013293Y-85144656D01*
X164161370Y-84940845D01*
X164275741Y-84716379D01*
X164353590Y-84476785D01*
X164393000Y-84227962D01*
X164393000Y-83976038D01*
X164353590Y-83727215D01*
X164275741Y-83487621D01*
X164275739Y-83487618D01*
X164275739Y-83487616D01*
X164234247Y-83406184D01*
X164161370Y-83263155D01*
X164142452Y-83237117D01*
X164013298Y-83059350D01*
X164013294Y-83059345D01*
X163835154Y-82881205D01*
X163835149Y-82881201D01*
X163631348Y-82733132D01*
X163631347Y-82733131D01*
X163631345Y-82733130D01*
X163561247Y-82697413D01*
X163406883Y-82618760D01*
X163167285Y-82540910D01*
X163101553Y-82530499D01*
X162918462Y-82501500D01*
X162666538Y-82501500D01*
X162577218Y-82515647D01*
X162417714Y-82540910D01*
X162178116Y-82618760D01*
X161953651Y-82733132D01*
X161749850Y-82881201D01*
X161749845Y-82881205D01*
X161571705Y-83059345D01*
X161571701Y-83059350D01*
X161423632Y-83263151D01*
X161309260Y-83487616D01*
X161231410Y-83727214D01*
X161200826Y-83920312D01*
X161192000Y-83976038D01*
X137646408Y-83976038D01*
X137738922Y-83883524D01*
X137738921Y-83883523D01*
X137694359Y-83851147D01*
X137694350Y-83851141D01*
X137512031Y-83758244D01*
X137317417Y-83695009D01*
X137115317Y-83663000D01*
X136910683Y-83663000D01*
X136708582Y-83695009D01*
X136513968Y-83758244D01*
X136331644Y-83851143D01*
X136287077Y-83883523D01*
X136287077Y-83883524D01*
X136966554Y-84563000D01*
X136960339Y-84563000D01*
X136858606Y-84590259D01*
X136767394Y-84642920D01*
X136692920Y-84717394D01*
X136640259Y-84808606D01*
X136613000Y-84910339D01*
X136613000Y-84916553D01*
X135933524Y-84237077D01*
X135933523Y-84237077D01*
X135901143Y-84281644D01*
X135817649Y-84445511D01*
X135769674Y-84496307D01*
X135701853Y-84513102D01*
X135635718Y-84490564D01*
X135596679Y-84445511D01*
X135539759Y-84333800D01*
X135428690Y-84180927D01*
X135295073Y-84047310D01*
X135142199Y-83936240D01*
X134973836Y-83850454D01*
X134794118Y-83792059D01*
X134607486Y-83762500D01*
X134607481Y-83762500D01*
X134418519Y-83762500D01*
X134418514Y-83762500D01*
X134231881Y-83792059D01*
X134052163Y-83850454D01*
X133883800Y-83936240D01*
X133829024Y-83976038D01*
X133730927Y-84047310D01*
X133730925Y-84047312D01*
X133730924Y-84047312D01*
X133597312Y-84180924D01*
X133597312Y-84180925D01*
X133597310Y-84180927D01*
X133549610Y-84246579D01*
X133486240Y-84333800D01*
X133400454Y-84502164D01*
X133399916Y-84503822D01*
X133399540Y-84504371D01*
X133398592Y-84506661D01*
X133398110Y-84506461D01*
X133385965Y-84524223D01*
X133375699Y-84546703D01*
X133366589Y-84552557D01*
X133360477Y-84561496D01*
X133337711Y-84571115D01*
X133316921Y-84584477D01*
X133300506Y-84586837D01*
X133296117Y-84588692D01*
X133281986Y-84589500D01*
X133098279Y-84589500D01*
X133031240Y-84569815D01*
X132985485Y-84517011D01*
X132980348Y-84503818D01*
X132979811Y-84502164D01*
X132938547Y-84375168D01*
X132852760Y-84206801D01*
X132741690Y-84053927D01*
X132608073Y-83920310D01*
X132455199Y-83809240D01*
X132455198Y-83809239D01*
X132455196Y-83809238D01*
X132394204Y-83778160D01*
X132343408Y-83730185D01*
X132326500Y-83667676D01*
X132326500Y-81629500D01*
X132346185Y-81562461D01*
X132398989Y-81516706D01*
X132450500Y-81505500D01*
X132511686Y-81505500D01*
X132511694Y-81505500D01*
X132548569Y-81502598D01*
X132548571Y-81502597D01*
X132548573Y-81502597D01*
X132590191Y-81490505D01*
X132706398Y-81456744D01*
X132847865Y-81373081D01*
X132964081Y-81256865D01*
X133047744Y-81115398D01*
X133087811Y-80977488D01*
X133125417Y-80918602D01*
X133188889Y-80889396D01*
X133258076Y-80899142D01*
X133307204Y-80939196D01*
X133396917Y-81062675D01*
X133538325Y-81204083D01*
X133700113Y-81321629D01*
X133867128Y-81406728D01*
X133878299Y-81412420D01*
X133973393Y-81443317D01*
X134068490Y-81474216D01*
X134266009Y-81505500D01*
X134266010Y-81505500D01*
X134465990Y-81505500D01*
X134465991Y-81505500D01*
X134663510Y-81474216D01*
X134853703Y-81412419D01*
X135031887Y-81321629D01*
X135193675Y-81204083D01*
X135335083Y-81062675D01*
X135452629Y-80900887D01*
X135469679Y-80867422D01*
X135517652Y-80816628D01*
X135585473Y-80799832D01*
X135651608Y-80822368D01*
X135690649Y-80867423D01*
X135734271Y-80953036D01*
X135861025Y-81127496D01*
X135861025Y-81127497D01*
X136013502Y-81279974D01*
X136187963Y-81406728D01*
X136380098Y-81504627D01*
X136585190Y-81571266D01*
X136656000Y-81582481D01*
X136656000Y-80552709D01*
X136676339Y-80564452D01*
X136827667Y-80605000D01*
X136984333Y-80605000D01*
X137135661Y-80564452D01*
X137156000Y-80552709D01*
X137156000Y-81582480D01*
X137226809Y-81571266D01*
X137431901Y-81504627D01*
X137624036Y-81406728D01*
X137798496Y-81279974D01*
X137798497Y-81279974D01*
X137950974Y-81127497D01*
X137950974Y-81127496D01*
X138077730Y-80953034D01*
X138121350Y-80867424D01*
X138169324Y-80816628D01*
X138237145Y-80799832D01*
X138303280Y-80822369D01*
X138342319Y-80867422D01*
X138359369Y-80900884D01*
X138359371Y-80900887D01*
X138476917Y-81062675D01*
X138618325Y-81204083D01*
X138780113Y-81321629D01*
X138947128Y-81406728D01*
X138958299Y-81412420D01*
X139053393Y-81443317D01*
X139148490Y-81474216D01*
X139346009Y-81505500D01*
X139346010Y-81505500D01*
X139545990Y-81505500D01*
X139545991Y-81505500D01*
X139743510Y-81474216D01*
X139933703Y-81412419D01*
X140111887Y-81321629D01*
X140273675Y-81204083D01*
X140415083Y-81062675D01*
X140532629Y-80900887D01*
X140605515Y-80757840D01*
X140653490Y-80707045D01*
X140721311Y-80690250D01*
X140787446Y-80712788D01*
X140826484Y-80757840D01*
X140899371Y-80900887D01*
X141016917Y-81062675D01*
X141158325Y-81204083D01*
X141320113Y-81321629D01*
X141487128Y-81406728D01*
X141498299Y-81412420D01*
X141593393Y-81443317D01*
X141688490Y-81474216D01*
X141886009Y-81505500D01*
X141886010Y-81505500D01*
X142085990Y-81505500D01*
X142085991Y-81505500D01*
X142283510Y-81474216D01*
X142473703Y-81412419D01*
X142651887Y-81321629D01*
X142813675Y-81204083D01*
X142955083Y-81062675D01*
X143072629Y-80900887D01*
X143163419Y-80722703D01*
X143225216Y-80532510D01*
X143256500Y-80334991D01*
X143256500Y-79685009D01*
X143225216Y-79487490D01*
X143173963Y-79329749D01*
X143163420Y-79297299D01*
X143102715Y-79178159D01*
X143102714Y-79178157D01*
X143075635Y-79125013D01*
X144655000Y-79125013D01*
X144655000Y-79770000D01*
X145482291Y-79770000D01*
X145470548Y-79790339D01*
X145430000Y-79941667D01*
X145430000Y-80098333D01*
X145470548Y-80249661D01*
X145482291Y-80270000D01*
X144655001Y-80270000D01*
X144655001Y-80914986D01*
X144665494Y-81017697D01*
X144720641Y-81184119D01*
X144720643Y-81184124D01*
X144812684Y-81333345D01*
X144936654Y-81457315D01*
X145085875Y-81549356D01*
X145085880Y-81549358D01*
X145252302Y-81604505D01*
X145252309Y-81604506D01*
X145355019Y-81614999D01*
X145774999Y-81614999D01*
X145775000Y-81614998D01*
X145775000Y-80562709D01*
X145795339Y-80574452D01*
X145946667Y-80615000D01*
X146103333Y-80615000D01*
X146254661Y-80574452D01*
X146275000Y-80562709D01*
X146275000Y-81614999D01*
X146694972Y-81614999D01*
X146694986Y-81614998D01*
X146797697Y-81604505D01*
X146964119Y-81549358D01*
X146964124Y-81549356D01*
X147113345Y-81457315D01*
X147237315Y-81333345D01*
X147329356Y-81184124D01*
X147329358Y-81184119D01*
X147362212Y-81084973D01*
X147401984Y-81027528D01*
X147466500Y-81000705D01*
X147535276Y-81013020D01*
X147580236Y-81051092D01*
X147595917Y-81072675D01*
X147737325Y-81214083D01*
X147899113Y-81331629D01*
X148046502Y-81406728D01*
X148077299Y-81422420D01*
X148172393Y-81453317D01*
X148267490Y-81484216D01*
X148465009Y-81515500D01*
X148465010Y-81515500D01*
X148664990Y-81515500D01*
X148664991Y-81515500D01*
X148862510Y-81484216D01*
X149052703Y-81422419D01*
X149230887Y-81331629D01*
X149392675Y-81214083D01*
X149534083Y-81072675D01*
X149651629Y-80910887D01*
X149742419Y-80732703D01*
X149804216Y-80542510D01*
X149835500Y-80344991D01*
X149835500Y-79695009D01*
X149804216Y-79497490D01*
X149769812Y-79391604D01*
X149742420Y-79307299D01*
X149713291Y-79250130D01*
X149651629Y-79129113D01*
X149534083Y-78967325D01*
X149392675Y-78825917D01*
X149230887Y-78708371D01*
X149211261Y-78698371D01*
X149099798Y-78641577D01*
X154197500Y-78641577D01*
X154197500Y-78838422D01*
X154228290Y-79032826D01*
X154289117Y-79220029D01*
X154376539Y-79391603D01*
X154378476Y-79395405D01*
X154494172Y-79554646D01*
X154633354Y-79693828D01*
X154786621Y-79805184D01*
X154829285Y-79860512D01*
X154835264Y-79930125D01*
X154802658Y-79991920D01*
X154741819Y-80026278D01*
X154713735Y-80029500D01*
X154566482Y-80029500D01*
X154485519Y-80042323D01*
X154472696Y-80044354D01*
X154359658Y-80101950D01*
X154359657Y-80101951D01*
X154359652Y-80101954D01*
X154269954Y-80191652D01*
X154269951Y-80191657D01*
X154212352Y-80304698D01*
X154197500Y-80398475D01*
X154197500Y-82161517D01*
X154203991Y-82202499D01*
X154212354Y-82255304D01*
X154269950Y-82368342D01*
X154269952Y-82368344D01*
X154269954Y-82368347D01*
X154359652Y-82458045D01*
X154359654Y-82458046D01*
X154359658Y-82458050D01*
X154472694Y-82515645D01*
X154472698Y-82515647D01*
X154566475Y-82530499D01*
X154566481Y-82530500D01*
X156329518Y-82530499D01*
X156423304Y-82515646D01*
X156536342Y-82458050D01*
X156626050Y-82368342D01*
X156683646Y-82255304D01*
X156683646Y-82255302D01*
X156683647Y-82255301D01*
X156698499Y-82161524D01*
X156698500Y-82161519D01*
X156698499Y-80398482D01*
X156683646Y-80304696D01*
X156626050Y-80191658D01*
X156626046Y-80191654D01*
X156626045Y-80191652D01*
X156536347Y-80101954D01*
X156536344Y-80101952D01*
X156536342Y-80101950D01*
X156459517Y-80062805D01*
X156423301Y-80044352D01*
X156329524Y-80029500D01*
X156182266Y-80029500D01*
X156115227Y-80009815D01*
X156069472Y-79957011D01*
X156059528Y-79887853D01*
X156088553Y-79824297D01*
X156109375Y-79805186D01*
X156262646Y-79693828D01*
X156370176Y-79586298D01*
X161192000Y-79586298D01*
X161192000Y-81617701D01*
X161194901Y-81654567D01*
X161194902Y-81654573D01*
X161240753Y-81812392D01*
X161240755Y-81812395D01*
X161324417Y-81953861D01*
X161324423Y-81953869D01*
X161440630Y-82070076D01*
X161440634Y-82070079D01*
X161440636Y-82070081D01*
X161582103Y-82153744D01*
X161582104Y-82153744D01*
X161582107Y-82153746D01*
X161739926Y-82199597D01*
X161739929Y-82199597D01*
X161739931Y-82199598D01*
X161776806Y-82202500D01*
X161776814Y-82202500D01*
X163808186Y-82202500D01*
X163808194Y-82202500D01*
X163845069Y-82199598D01*
X163845071Y-82199597D01*
X163845073Y-82199597D01*
X164002892Y-82153746D01*
X164002893Y-82153745D01*
X164002897Y-82153744D01*
X164144364Y-82070081D01*
X164260581Y-81953864D01*
X164344244Y-81812397D01*
X164344245Y-81812393D01*
X164344246Y-81812392D01*
X164390097Y-81654573D01*
X164390098Y-81654567D01*
X164392999Y-81617701D01*
X164393000Y-81617694D01*
X164393000Y-79586306D01*
X164390098Y-79549431D01*
X164385581Y-79533882D01*
X164344246Y-79391607D01*
X164344244Y-79391604D01*
X164344244Y-79391603D01*
X164260581Y-79250136D01*
X164260579Y-79250134D01*
X164260576Y-79250130D01*
X164144369Y-79133923D01*
X164144361Y-79133917D01*
X164054548Y-79080802D01*
X164002897Y-79050256D01*
X164002896Y-79050255D01*
X164002895Y-79050255D01*
X164002892Y-79050253D01*
X163845073Y-79004402D01*
X163845067Y-79004401D01*
X163808201Y-79001500D01*
X163808194Y-79001500D01*
X161776806Y-79001500D01*
X161776798Y-79001500D01*
X161739932Y-79004401D01*
X161739926Y-79004402D01*
X161582107Y-79050253D01*
X161582104Y-79050255D01*
X161440638Y-79133917D01*
X161440630Y-79133923D01*
X161324423Y-79250130D01*
X161324417Y-79250138D01*
X161240755Y-79391604D01*
X161240753Y-79391607D01*
X161194902Y-79549426D01*
X161194901Y-79549432D01*
X161192000Y-79586298D01*
X156370176Y-79586298D01*
X156401828Y-79554646D01*
X156517524Y-79395405D01*
X156606884Y-79220025D01*
X156667709Y-79032826D01*
X156672211Y-79004401D01*
X156698500Y-78838422D01*
X156698500Y-78641577D01*
X156667709Y-78447173D01*
X156606882Y-78259970D01*
X156517523Y-78084594D01*
X156401828Y-77925354D01*
X156262646Y-77786172D01*
X156103405Y-77670476D01*
X155928029Y-77581117D01*
X155740826Y-77520290D01*
X155546422Y-77489500D01*
X155546417Y-77489500D01*
X155349583Y-77489500D01*
X155349578Y-77489500D01*
X155155173Y-77520290D01*
X154967970Y-77581117D01*
X154792594Y-77670476D01*
X154701741Y-77736485D01*
X154633354Y-77786172D01*
X154633352Y-77786174D01*
X154633351Y-77786174D01*
X154494174Y-77925351D01*
X154494174Y-77925352D01*
X154494172Y-77925354D01*
X154444485Y-77993741D01*
X154378476Y-78084594D01*
X154289117Y-78259970D01*
X154228290Y-78447173D01*
X154197500Y-78641577D01*
X149099798Y-78641577D01*
X149052700Y-78617579D01*
X148862511Y-78555784D01*
X148763750Y-78540142D01*
X148664991Y-78524500D01*
X148465009Y-78524500D01*
X148399169Y-78534928D01*
X148267488Y-78555784D01*
X148077299Y-78617579D01*
X147899112Y-78708371D01*
X147855545Y-78740025D01*
X147737325Y-78825917D01*
X147737323Y-78825919D01*
X147737322Y-78825919D01*
X147595916Y-78967325D01*
X147580235Y-78988909D01*
X147524904Y-79031574D01*
X147455291Y-79037552D01*
X147393496Y-79004945D01*
X147362212Y-78955026D01*
X147329358Y-78855880D01*
X147329356Y-78855875D01*
X147237315Y-78706654D01*
X147113345Y-78582684D01*
X146964124Y-78490643D01*
X146964119Y-78490641D01*
X146797697Y-78435494D01*
X146797690Y-78435493D01*
X146694986Y-78425000D01*
X146275000Y-78425000D01*
X146275000Y-79477290D01*
X146254661Y-79465548D01*
X146103333Y-79425000D01*
X145946667Y-79425000D01*
X145795339Y-79465548D01*
X145775000Y-79477290D01*
X145775000Y-78425000D01*
X145355028Y-78425000D01*
X145355012Y-78425001D01*
X145252302Y-78435494D01*
X145085880Y-78490641D01*
X145085875Y-78490643D01*
X144936654Y-78582684D01*
X144812684Y-78706654D01*
X144720643Y-78855875D01*
X144720641Y-78855880D01*
X144665494Y-79022302D01*
X144665493Y-79022309D01*
X144655000Y-79125013D01*
X143075635Y-79125013D01*
X143072630Y-79119115D01*
X143058238Y-79099306D01*
X142955083Y-78957325D01*
X142813675Y-78815917D01*
X142651887Y-78698371D01*
X142473700Y-78607579D01*
X142283511Y-78545784D01*
X142104313Y-78517402D01*
X142085991Y-78514500D01*
X141886009Y-78514500D01*
X141867687Y-78517402D01*
X141688488Y-78545784D01*
X141498299Y-78607579D01*
X141320112Y-78698371D01*
X141262781Y-78740025D01*
X141158325Y-78815917D01*
X141158323Y-78815919D01*
X141158322Y-78815919D01*
X141016919Y-78957322D01*
X141016919Y-78957323D01*
X141016917Y-78957325D01*
X141009654Y-78967322D01*
X140899367Y-79119117D01*
X140826484Y-79262158D01*
X140778510Y-79312954D01*
X140710689Y-79329749D01*
X140644554Y-79307211D01*
X140605516Y-79262158D01*
X140532632Y-79119117D01*
X140518238Y-79099306D01*
X140415083Y-78957325D01*
X140273675Y-78815917D01*
X140111887Y-78698371D01*
X139933700Y-78607579D01*
X139743511Y-78545784D01*
X139564313Y-78517402D01*
X139545991Y-78514500D01*
X139346009Y-78514500D01*
X139327687Y-78517402D01*
X139148488Y-78545784D01*
X138958299Y-78607579D01*
X138780112Y-78698371D01*
X138722781Y-78740025D01*
X138618325Y-78815917D01*
X138618323Y-78815919D01*
X138618322Y-78815919D01*
X138476919Y-78957322D01*
X138476919Y-78957323D01*
X138476917Y-78957325D01*
X138469654Y-78967322D01*
X138359371Y-79119112D01*
X138342319Y-79152578D01*
X138294343Y-79203373D01*
X138226522Y-79220167D01*
X138160388Y-79197628D01*
X138121350Y-79152575D01*
X138077730Y-79066965D01*
X137950974Y-78892503D01*
X137950974Y-78892502D01*
X137798497Y-78740025D01*
X137624036Y-78613271D01*
X137431899Y-78515372D01*
X137226805Y-78448733D01*
X137156000Y-78437518D01*
X137156000Y-79467290D01*
X137135661Y-79455548D01*
X136984333Y-79415000D01*
X136827667Y-79415000D01*
X136676339Y-79455548D01*
X136656000Y-79467290D01*
X136656000Y-78437518D01*
X136655999Y-78437518D01*
X136585194Y-78448733D01*
X136380100Y-78515372D01*
X136187963Y-78613271D01*
X136013503Y-78740025D01*
X136013502Y-78740025D01*
X135861025Y-78892502D01*
X135861025Y-78892503D01*
X135734267Y-79066968D01*
X135690648Y-79152576D01*
X135642674Y-79203372D01*
X135574853Y-79220167D01*
X135508718Y-79197629D01*
X135469679Y-79152576D01*
X135452629Y-79119113D01*
X135335083Y-78957325D01*
X135193675Y-78815917D01*
X135031887Y-78698371D01*
X134853700Y-78607579D01*
X134663511Y-78545784D01*
X134484313Y-78517402D01*
X134465991Y-78514500D01*
X134266009Y-78514500D01*
X134247687Y-78517402D01*
X134068488Y-78545784D01*
X133878299Y-78607579D01*
X133700112Y-78698371D01*
X133642781Y-78740025D01*
X133538325Y-78815917D01*
X133538323Y-78815919D01*
X133538322Y-78815919D01*
X133396918Y-78957323D01*
X133307205Y-79080802D01*
X133251874Y-79123467D01*
X133182261Y-79129446D01*
X133120466Y-79096840D01*
X133087811Y-79042511D01*
X133047745Y-78904606D01*
X133047744Y-78904603D01*
X133047744Y-78904602D01*
X132964081Y-78763135D01*
X132964079Y-78763133D01*
X132964076Y-78763129D01*
X132847870Y-78646923D01*
X132847862Y-78646917D01*
X132706396Y-78563255D01*
X132706393Y-78563254D01*
X132548573Y-78517402D01*
X132548567Y-78517401D01*
X132511701Y-78514500D01*
X132511694Y-78514500D01*
X131140306Y-78514500D01*
X131140298Y-78514500D01*
X131103432Y-78517401D01*
X131103426Y-78517402D01*
X130945606Y-78563254D01*
X130945603Y-78563255D01*
X130804137Y-78646917D01*
X130804129Y-78646923D01*
X130687923Y-78763129D01*
X130687917Y-78763137D01*
X130604255Y-78904603D01*
X130604254Y-78904606D01*
X130558402Y-79062426D01*
X130558401Y-79062432D01*
X130555500Y-79099298D01*
X130555500Y-80920701D01*
X130558401Y-80957567D01*
X130558402Y-80957573D01*
X130604254Y-81115393D01*
X130604255Y-81115396D01*
X130687917Y-81256862D01*
X130687923Y-81256870D01*
X130804129Y-81373076D01*
X130804133Y-81373079D01*
X130804135Y-81373081D01*
X130945602Y-81456744D01*
X130987224Y-81468836D01*
X131103426Y-81502597D01*
X131103429Y-81502597D01*
X131103431Y-81502598D01*
X131140306Y-81505500D01*
X131201500Y-81505500D01*
X131268539Y-81525185D01*
X131314294Y-81577989D01*
X131325500Y-81629500D01*
X131325500Y-83667676D01*
X131305815Y-83734715D01*
X131257796Y-83778160D01*
X131196803Y-83809238D01*
X131139127Y-83851143D01*
X131043927Y-83920310D01*
X131043925Y-83920312D01*
X131043924Y-83920312D01*
X130910312Y-84053924D01*
X130910312Y-84053925D01*
X130910310Y-84053927D01*
X130862610Y-84119579D01*
X130799240Y-84206800D01*
X130713454Y-84375163D01*
X130655059Y-84554881D01*
X130625500Y-84741513D01*
X130625500Y-84930486D01*
X130655060Y-85117119D01*
X130655060Y-85117122D01*
X130676213Y-85182222D01*
X130678208Y-85252063D01*
X130645963Y-85308221D01*
X129740686Y-86213500D01*
X129647502Y-86306683D01*
X129647500Y-86306686D01*
X129581608Y-86420812D01*
X129547500Y-86548108D01*
X129547500Y-89219891D01*
X129581608Y-89347187D01*
X129609704Y-89395849D01*
X129647500Y-89461314D01*
X130129702Y-89943516D01*
X130163187Y-90004838D01*
X130158203Y-90074529D01*
X130116332Y-90130463D01*
X130050867Y-90154880D01*
X130022624Y-90153669D01*
X129936319Y-90140000D01*
X129731683Y-90140000D01*
X129529582Y-90172009D01*
X129334968Y-90235244D01*
X129152644Y-90328143D01*
X129108077Y-90360523D01*
X129108077Y-90360524D01*
X129787554Y-91040000D01*
X129781339Y-91040000D01*
X129679606Y-91067259D01*
X129588394Y-91119920D01*
X129513920Y-91194394D01*
X129461259Y-91285606D01*
X129434000Y-91387339D01*
X129434000Y-91393553D01*
X128754524Y-90714077D01*
X128754523Y-90714077D01*
X128722143Y-90758644D01*
X128629244Y-90940968D01*
X128566009Y-91135582D01*
X128534000Y-91337682D01*
X124706500Y-91337682D01*
X124706500Y-76824500D01*
X124726185Y-76757461D01*
X124778989Y-76711706D01*
X124830500Y-76700500D01*
X167015500Y-76700500D01*
X167082539Y-76720185D01*
G37*
%TD.AperFunction*%
%TD*%
M02*
